<?xml version="1.0" encoding="utf-8" standalone="no"?>
<!DOCTYPE svg PUBLIC "-//W3C//DTD SVG 1.1//EN"
  "http://www.w3.org/Graphics/SVG/1.1/DTD/svg11.dtd">
<svg xmlns:xlink="http://www.w3.org/1999/xlink" width="874.8pt" height="601.2pt" viewBox="0 0 874.8 601.2" xmlns="http://www.w3.org/2000/svg" version="1.1">
 <metadata>
  <rdf:RDF xmlns:dc="http://purl.org/dc/elements/1.1/" xmlns:cc="http://creativecommons.org/ns#" xmlns:rdf="http://www.w3.org/1999/02/22-rdf-syntax-ns#">
   <cc:Work>
    <dc:type rdf:resource="http://purl.org/dc/dcmitype/StillImage"/>
    <dc:date>2025-09-04T21:05:45.552049</dc:date>
    <dc:format>image/svg+xml</dc:format>
    <dc:creator>
     <cc:Agent>
      <dc:title>Matplotlib v3.10.0, https://matplotlib.org/</dc:title>
     </cc:Agent>
    </dc:creator>
   </cc:Work>
  </rdf:RDF>
 </metadata>
 <defs>
  <style type="text/css">*{stroke-linejoin: round; stroke-linecap: butt}</style>
 </defs>
 <g id="figure_1">
  <g id="patch_1">
   <path d="M 0 601.2 
L 874.8 601.2 
L 874.8 0 
L 0 0 
z
" style="fill: #ffffff"/>
  </g>
  <g id="axes_1">
   <g id="patch_2">
    <path d="M 56.335 568.74 
L 861.84 568.74 
L 861.84 27.96 
L 56.335 27.96 
z
" style="fill: #eaeaf2"/>
   </g>
   <g id="matplotlib.axis_1">
    <g id="xtick_1">
     <g id="line2d_1">
      <path d="M 92.948864 568.74 
L 92.948864 27.96 
" clip-path="url(#p06adef1966)" style="fill: none; stroke: #ffffff; stroke-linecap: round"/>
     </g>
    </g>
    <g id="xtick_2">
     <g id="line2d_2">
      <path d="M 251.694286 568.74 
L 251.694286 27.96 
" clip-path="url(#p06adef1966)" style="fill: none; stroke: #ffffff; stroke-linecap: round"/>
     </g>
    </g>
    <g id="xtick_3">
     <g id="line2d_3">
      <path d="M 395.077249 568.74 
L 395.077249 27.96 
" clip-path="url(#p06adef1966)" style="fill: none; stroke: #ffffff; stroke-linecap: round"/>
     </g>
    </g>
    <g id="xtick_4">
     <g id="line2d_4">
      <path d="M 553.822672 568.74 
L 553.822672 27.96 
" clip-path="url(#p06adef1966)" style="fill: none; stroke: #ffffff; stroke-linecap: round"/>
     </g>
    </g>
    <g id="xtick_5">
     <g id="line2d_5">
      <path d="M 707.447274 568.74 
L 707.447274 27.96 
" clip-path="url(#p06adef1966)" style="fill: none; stroke: #ffffff; stroke-linecap: round"/>
     </g>
    </g>
   </g>
   <g id="matplotlib.axis_2">
    <g id="ytick_1">
     <g id="line2d_6">
      <path d="M 56.335 525.490714 
L 861.84 525.490714 
" clip-path="url(#p06adef1966)" style="fill: none; stroke: #ffffff; stroke-linecap: round"/>
     </g>
     <g id="text_1">
      <!-- 280 -->
      <g style="fill: #262626" transform="translate(28.483906 529.427511) scale(0.11 -0.11)">
       <defs>
        <path id="ArialMT-32" d="M 3222 541 
L 3222 0 
L 194 0 
Q 188 203 259 391 
Q 375 700 629 1000 
Q 884 1300 1366 1694 
Q 2113 2306 2375 2664 
Q 2638 3022 2638 3341 
Q 2638 3675 2398 3904 
Q 2159 4134 1775 4134 
Q 1369 4134 1125 3890 
Q 881 3647 878 3216 
L 300 3275 
Q 359 3922 746 4261 
Q 1134 4600 1788 4600 
Q 2447 4600 2831 4234 
Q 3216 3869 3216 3328 
Q 3216 3053 3103 2787 
Q 2991 2522 2730 2228 
Q 2469 1934 1863 1422 
Q 1356 997 1212 845 
Q 1069 694 975 541 
L 3222 541 
z
" transform="scale(0.015625)"/>
        <path id="ArialMT-38" d="M 1131 2484 
Q 781 2613 612 2850 
Q 444 3088 444 3419 
Q 444 3919 803 4259 
Q 1163 4600 1759 4600 
Q 2359 4600 2725 4251 
Q 3091 3903 3091 3403 
Q 3091 3084 2923 2848 
Q 2756 2613 2416 2484 
Q 2838 2347 3058 2040 
Q 3278 1734 3278 1309 
Q 3278 722 2862 322 
Q 2447 -78 1769 -78 
Q 1091 -78 675 323 
Q 259 725 259 1325 
Q 259 1772 486 2073 
Q 713 2375 1131 2484 
z
M 1019 3438 
Q 1019 3113 1228 2906 
Q 1438 2700 1772 2700 
Q 2097 2700 2305 2904 
Q 2513 3109 2513 3406 
Q 2513 3716 2298 3927 
Q 2084 4138 1766 4138 
Q 1444 4138 1231 3931 
Q 1019 3725 1019 3438 
z
M 838 1322 
Q 838 1081 952 856 
Q 1066 631 1291 507 
Q 1516 384 1775 384 
Q 2178 384 2440 643 
Q 2703 903 2703 1303 
Q 2703 1709 2433 1975 
Q 2163 2241 1756 2241 
Q 1359 2241 1098 1978 
Q 838 1716 838 1322 
z
" transform="scale(0.015625)"/>
        <path id="ArialMT-30" d="M 266 2259 
Q 266 3072 433 3567 
Q 600 4063 929 4331 
Q 1259 4600 1759 4600 
Q 2128 4600 2406 4451 
Q 2684 4303 2865 4023 
Q 3047 3744 3150 3342 
Q 3253 2941 3253 2259 
Q 3253 1453 3087 958 
Q 2922 463 2592 192 
Q 2263 -78 1759 -78 
Q 1097 -78 719 397 
Q 266 969 266 2259 
z
M 844 2259 
Q 844 1131 1108 757 
Q 1372 384 1759 384 
Q 2147 384 2411 759 
Q 2675 1134 2675 2259 
Q 2675 3391 2411 3762 
Q 2147 4134 1753 4134 
Q 1366 4134 1134 3806 
Q 844 3388 844 2259 
z
" transform="scale(0.015625)"/>
       </defs>
       <use xlink:href="#ArialMT-32"/>
       <use xlink:href="#ArialMT-38" transform="translate(55.615234 0)"/>
       <use xlink:href="#ArialMT-30" transform="translate(111.230469 0)"/>
      </g>
     </g>
    </g>
    <g id="ytick_2">
     <g id="line2d_7">
      <path d="M 56.335 465.245377 
L 861.84 465.245377 
" clip-path="url(#p06adef1966)" style="fill: none; stroke: #ffffff; stroke-linecap: round"/>
     </g>
     <g id="text_2">
      <!-- 300 -->
      <g style="fill: #262626" transform="translate(28.483906 469.182173) scale(0.11 -0.11)">
       <defs>
        <path id="ArialMT-33" d="M 269 1209 
L 831 1284 
Q 928 806 1161 595 
Q 1394 384 1728 384 
Q 2125 384 2398 659 
Q 2672 934 2672 1341 
Q 2672 1728 2419 1979 
Q 2166 2231 1775 2231 
Q 1616 2231 1378 2169 
L 1441 2663 
Q 1497 2656 1531 2656 
Q 1891 2656 2178 2843 
Q 2466 3031 2466 3422 
Q 2466 3731 2256 3934 
Q 2047 4138 1716 4138 
Q 1388 4138 1169 3931 
Q 950 3725 888 3313 
L 325 3413 
Q 428 3978 793 4289 
Q 1159 4600 1703 4600 
Q 2078 4600 2393 4439 
Q 2709 4278 2876 4000 
Q 3044 3722 3044 3409 
Q 3044 3113 2884 2869 
Q 2725 2625 2413 2481 
Q 2819 2388 3044 2092 
Q 3269 1797 3269 1353 
Q 3269 753 2831 336 
Q 2394 -81 1725 -81 
Q 1122 -81 723 278 
Q 325 638 269 1209 
z
" transform="scale(0.015625)"/>
       </defs>
       <use xlink:href="#ArialMT-33"/>
       <use xlink:href="#ArialMT-30" transform="translate(55.615234 0)"/>
       <use xlink:href="#ArialMT-30" transform="translate(111.230469 0)"/>
      </g>
     </g>
    </g>
    <g id="ytick_3">
     <g id="line2d_8">
      <path d="M 56.335 405.000039 
L 861.84 405.000039 
" clip-path="url(#p06adef1966)" style="fill: none; stroke: #ffffff; stroke-linecap: round"/>
     </g>
     <g id="text_3">
      <!-- 320 -->
      <g style="fill: #262626" transform="translate(28.483906 408.936836) scale(0.11 -0.11)">
       <use xlink:href="#ArialMT-33"/>
       <use xlink:href="#ArialMT-32" transform="translate(55.615234 0)"/>
       <use xlink:href="#ArialMT-30" transform="translate(111.230469 0)"/>
      </g>
     </g>
    </g>
    <g id="ytick_4">
     <g id="line2d_9">
      <path d="M 56.335 344.754701 
L 861.84 344.754701 
" clip-path="url(#p06adef1966)" style="fill: none; stroke: #ffffff; stroke-linecap: round"/>
     </g>
     <g id="text_4">
      <!-- 340 -->
      <g style="fill: #262626" transform="translate(28.483906 348.691498) scale(0.11 -0.11)">
       <defs>
        <path id="ArialMT-34" d="M 2069 0 
L 2069 1097 
L 81 1097 
L 81 1613 
L 2172 4581 
L 2631 4581 
L 2631 1613 
L 3250 1613 
L 3250 1097 
L 2631 1097 
L 2631 0 
L 2069 0 
z
M 2069 1613 
L 2069 3678 
L 634 1613 
L 2069 1613 
z
" transform="scale(0.015625)"/>
       </defs>
       <use xlink:href="#ArialMT-33"/>
       <use xlink:href="#ArialMT-34" transform="translate(55.615234 0)"/>
       <use xlink:href="#ArialMT-30" transform="translate(111.230469 0)"/>
      </g>
     </g>
    </g>
    <g id="ytick_5">
     <g id="line2d_10">
      <path d="M 56.335 284.509363 
L 861.84 284.509363 
" clip-path="url(#p06adef1966)" style="fill: none; stroke: #ffffff; stroke-linecap: round"/>
     </g>
     <g id="text_5">
      <!-- 360 -->
      <g style="fill: #262626" transform="translate(28.483906 288.44616) scale(0.11 -0.11)">
       <defs>
        <path id="ArialMT-36" d="M 3184 3459 
L 2625 3416 
Q 2550 3747 2413 3897 
Q 2184 4138 1850 4138 
Q 1581 4138 1378 3988 
Q 1113 3794 959 3422 
Q 806 3050 800 2363 
Q 1003 2672 1297 2822 
Q 1591 2972 1913 2972 
Q 2475 2972 2870 2558 
Q 3266 2144 3266 1488 
Q 3266 1056 3080 686 
Q 2894 316 2569 119 
Q 2244 -78 1831 -78 
Q 1128 -78 684 439 
Q 241 956 241 2144 
Q 241 3472 731 4075 
Q 1159 4600 1884 4600 
Q 2425 4600 2770 4297 
Q 3116 3994 3184 3459 
z
M 888 1484 
Q 888 1194 1011 928 
Q 1134 663 1356 523 
Q 1578 384 1822 384 
Q 2178 384 2434 671 
Q 2691 959 2691 1453 
Q 2691 1928 2437 2201 
Q 2184 2475 1800 2475 
Q 1419 2475 1153 2201 
Q 888 1928 888 1484 
z
" transform="scale(0.015625)"/>
       </defs>
       <use xlink:href="#ArialMT-33"/>
       <use xlink:href="#ArialMT-36" transform="translate(55.615234 0)"/>
       <use xlink:href="#ArialMT-30" transform="translate(111.230469 0)"/>
      </g>
     </g>
    </g>
    <g id="ytick_6">
     <g id="line2d_11">
      <path d="M 56.335 224.264026 
L 861.84 224.264026 
" clip-path="url(#p06adef1966)" style="fill: none; stroke: #ffffff; stroke-linecap: round"/>
     </g>
     <g id="text_6">
      <!-- 380 -->
      <g style="fill: #262626" transform="translate(28.483906 228.200822) scale(0.11 -0.11)">
       <use xlink:href="#ArialMT-33"/>
       <use xlink:href="#ArialMT-38" transform="translate(55.615234 0)"/>
       <use xlink:href="#ArialMT-30" transform="translate(111.230469 0)"/>
      </g>
     </g>
    </g>
    <g id="ytick_7">
     <g id="line2d_12">
      <path d="M 56.335 164.018688 
L 861.84 164.018688 
" clip-path="url(#p06adef1966)" style="fill: none; stroke: #ffffff; stroke-linecap: round"/>
     </g>
     <g id="text_7">
      <!-- 400 -->
      <g style="fill: #262626" transform="translate(28.483906 167.955485) scale(0.11 -0.11)">
       <use xlink:href="#ArialMT-34"/>
       <use xlink:href="#ArialMT-30" transform="translate(55.615234 0)"/>
       <use xlink:href="#ArialMT-30" transform="translate(111.230469 0)"/>
      </g>
     </g>
    </g>
    <g id="ytick_8">
     <g id="line2d_13">
      <path d="M 56.335 103.77335 
L 861.84 103.77335 
" clip-path="url(#p06adef1966)" style="fill: none; stroke: #ffffff; stroke-linecap: round"/>
     </g>
     <g id="text_8">
      <!-- 420 -->
      <g style="fill: #262626" transform="translate(28.483906 107.710147) scale(0.11 -0.11)">
       <use xlink:href="#ArialMT-34"/>
       <use xlink:href="#ArialMT-32" transform="translate(55.615234 0)"/>
       <use xlink:href="#ArialMT-30" transform="translate(111.230469 0)"/>
      </g>
     </g>
    </g>
    <g id="ytick_9">
     <g id="line2d_14">
      <path d="M 56.335 43.528012 
L 861.84 43.528012 
" clip-path="url(#p06adef1966)" style="fill: none; stroke: #ffffff; stroke-linecap: round"/>
     </g>
     <g id="text_9">
      <!-- 440 -->
      <g style="fill: #262626" transform="translate(28.483906 47.464809) scale(0.11 -0.11)">
       <use xlink:href="#ArialMT-34"/>
       <use xlink:href="#ArialMT-34" transform="translate(55.615234 0)"/>
       <use xlink:href="#ArialMT-30" transform="translate(111.230469 0)"/>
      </g>
     </g>
    </g>
   </g>
   <g id="line2d_15">
    <path d="M 92.948864 450.283021 
L 98.069684 469.410266 
L 103.190504 445.735269 
L 108.311324 419.367653 
L 113.432144 472.298701 
L 118.552964 472.298207 
L 123.673784 417.675272 
L 128.794604 442.128194 
L 133.915424 479.387198 
L 139.036244 448.90202 
L 144.157065 479.204754 
L 149.277885 479.2744 
L 154.398705 457.956827 
L 159.519525 522.878484 
L 164.640345 517.204505 
L 169.761165 482.182978 
L 174.881985 495.754553 
L 180.002805 455.779408 
L 185.123625 492.597485 
L 190.244445 507.787733 
L 195.365265 421.096124 
L 200.486086 472.046361 
L 205.606906 463.211247 
L 210.727726 508.162594 
L 215.848546 481.643637 
L 220.969366 461.904092 
L 226.090186 499.916375 
L 231.211006 453.92835 
L 236.331826 483.338217 
L 241.452646 474.031971 
L 246.573466 483.370386 
L 251.694286 409.449814 
L 256.815106 465.651949 
L 261.935927 497.106453 
L 267.056747 440.468129 
L 272.177567 502.020446 
L 277.298387 458.953848 
L 282.419207 524.275871 
L 287.540027 505.253885 
L 292.660847 459.315391 
L 297.781667 443.000792 
L 302.902487 460.083307 
L 308.023307 468.729011 
L 313.144127 474.315424 
L 318.264948 509.782405 
L 323.385768 486.929005 
L 328.506588 479.121046 
L 333.627408 433.402034 
L 338.748228 454.894677 
L 343.869048 518.352851 
L 348.989868 455.483102 
L 354.110688 476.845083 
L 359.231508 485.636074 
L 364.352328 446.820054 
L 369.473148 434.188919 
L 374.593969 437.192734 
L 379.714789 490.524848 
L 384.835609 474.559679 
L 395.077249 435.859354 
L 400.198069 479.679383 
L 405.318889 470.83792 
L 410.439709 498.571139 
L 415.560529 501.278313 
L 420.681349 440.76993 
L 425.802169 424.391807 
L 430.92299 467.414514 
L 436.04381 435.016287 
L 441.16463 454.351934 
L 446.28545 484.678105 
L 451.40627 454.359176 
L 456.52709 418.91561 
L 461.64791 466.324552 
L 466.76873 418.114134 
L 471.88955 544.159091 
L 477.01037 440.48748 
L 482.13119 462.623287 
L 487.25201 474.252276 
L 492.372831 462.481297 
L 497.493651 525.116257 
L 502.614471 471.86248 
L 507.735291 448.368032 
L 512.856111 408.486941 
L 517.976931 462.496575 
L 523.097751 465.118716 
L 528.218571 449.758831 
L 533.339391 400.950054 
L 538.460211 412.501387 
L 543.581031 432.241877 
L 548.701852 394.70294 
L 553.822672 401.119529 
L 558.943492 368.74543 
L 564.064312 412.951154 
L 569.185132 395.553338 
L 574.305952 391.374462 
L 579.426772 417.527933 
L 584.547592 358.402863 
L 589.668412 353.338953 
L 594.789232 354.928442 
L 599.910052 356.028702 
L 605.030873 385.476895 
L 610.151693 349.392949 
L 615.272513 340.925304 
L 620.393333 348.648399 
L 625.514153 323.219862 
L 630.634973 300.070254 
L 635.755793 249.30423 
L 640.876613 294.742272 
L 645.997433 286.122755 
L 651.118253 290.003209 
L 656.239073 339.439048 
L 661.359894 276.319045 
L 666.480714 267.58592 
L 671.601534 189.080627 
L 676.722354 262.954318 
L 681.843174 241.95632 
L 686.963994 245.965181 
L 692.084814 274.00311 
L 697.205634 198.254374 
L 702.326454 203.908856 
L 707.447274 196.610931 
L 712.568094 241.711941 
L 717.688914 165.942694 
L 722.809735 244.305936 
L 727.930555 178.280578 
L 733.051375 123.855749 
L 738.172195 213.555555 
L 743.293015 194.656195 
L 748.413835 168.475869 
L 753.534655 180.523503 
L 758.655475 205.947433 
L 763.776295 151.051851 
L 768.897115 178.996412 
L 774.017935 126.61096 
L 779.138756 162.452178 
L 784.259576 81.948344 
L 789.380396 146.110024 
L 794.501216 126.097535 
L 799.622036 85.770712 
L 804.742856 141.232778 
L 809.863676 91.183998 
L 814.984496 52.540909 
L 820.105316 134.217061 
L 825.226136 74.11355 
L 825.226136 74.11355 
" clip-path="url(#p06adef1966)" style="fill: none; stroke: #ef4444; stroke-width: 1.5; stroke-linecap: round"/>
   </g>
   <g id="patch_3">
    <path d="M 56.335 568.74 
L 56.335 27.96 
" style="fill: none; stroke: #ffffff; stroke-width: 1.25; stroke-linejoin: miter; stroke-linecap: square"/>
   </g>
   <g id="patch_4">
    <path d="M 861.84 568.74 
L 861.84 27.96 
" style="fill: none; stroke: #ffffff; stroke-width: 1.25; stroke-linejoin: miter; stroke-linecap: square"/>
   </g>
   <g id="patch_5">
    <path d="M 56.335 568.74 
L 861.84 568.74 
" style="fill: none; stroke: #ffffff; stroke-width: 1.25; stroke-linejoin: miter; stroke-linecap: square"/>
   </g>
   <g id="patch_6">
    <path d="M 56.335 27.96 
L 861.84 27.96 
" style="fill: none; stroke: #ffffff; stroke-width: 1.25; stroke-linejoin: miter; stroke-linecap: square"/>
   </g>
  </g>
 </g>
 <defs>
  <clipPath id="p06adef1966">
   <rect x="56.335" y="27.96" width="805.505" height="540.78"/>
  </clipPath>
 </defs>
</svg>
