<?xml version="1.0" encoding="utf-8" standalone="no"?>
<!DOCTYPE svg PUBLIC "-//W3C//DTD SVG 1.1//EN"
  "http://www.w3.org/Graphics/SVG/1.1/DTD/svg11.dtd">
<svg xmlns:xlink="http://www.w3.org/1999/xlink" width="874.8pt" height="601.2pt" viewBox="0 0 874.8 601.2" xmlns="http://www.w3.org/2000/svg" version="1.1">
 <metadata>
  <rdf:RDF xmlns:dc="http://purl.org/dc/elements/1.1/" xmlns:cc="http://creativecommons.org/ns#" xmlns:rdf="http://www.w3.org/1999/02/22-rdf-syntax-ns#">
   <cc:Work>
    <dc:type rdf:resource="http://purl.org/dc/dcmitype/StillImage"/>
    <dc:date>2025-09-04T21:20:48.679869</dc:date>
    <dc:format>image/svg+xml</dc:format>
    <dc:creator>
     <cc:Agent>
      <dc:title>Matplotlib v3.10.0, https://matplotlib.org/</dc:title>
     </cc:Agent>
    </dc:creator>
   </cc:Work>
  </rdf:RDF>
 </metadata>
 <defs>
  <style type="text/css">*{stroke-linejoin: round; stroke-linecap: butt}</style>
 </defs>
 <g id="figure_1">
  <g id="patch_1">
   <path d="M 0 601.2 
L 874.8 601.2 
L 874.8 0 
L 0 0 
z
" style="fill: #ffffff"/>
  </g>
  <g id="axes_1">
   <g id="patch_2">
    <path d="M 56.335 568.74 
L 861.84 568.74 
L 861.84 27.96 
L 56.335 27.96 
z
" style="fill: #eaeaf2"/>
   </g>
   <g id="matplotlib.axis_1">
    <g id="xtick_1">
     <g id="line2d_1">
      <path d="M 92.948864 568.74 
L 92.948864 27.96 
" clip-path="url(#p232f9c8542)" style="fill: none; stroke: #ffffff; stroke-linecap: round"/>
     </g>
    </g>
    <g id="xtick_2">
     <g id="line2d_2">
      <path d="M 251.694286 568.74 
L 251.694286 27.96 
" clip-path="url(#p232f9c8542)" style="fill: none; stroke: #ffffff; stroke-linecap: round"/>
     </g>
    </g>
    <g id="xtick_3">
     <g id="line2d_3">
      <path d="M 395.077249 568.74 
L 395.077249 27.96 
" clip-path="url(#p232f9c8542)" style="fill: none; stroke: #ffffff; stroke-linecap: round"/>
     </g>
    </g>
    <g id="xtick_4">
     <g id="line2d_4">
      <path d="M 553.822672 568.74 
L 553.822672 27.96 
" clip-path="url(#p232f9c8542)" style="fill: none; stroke: #ffffff; stroke-linecap: round"/>
     </g>
    </g>
    <g id="xtick_5">
     <g id="line2d_5">
      <path d="M 707.447274 568.74 
L 707.447274 27.96 
" clip-path="url(#p232f9c8542)" style="fill: none; stroke: #ffffff; stroke-linecap: round"/>
     </g>
    </g>
   </g>
   <g id="matplotlib.axis_2">
    <g id="ytick_1">
     <g id="line2d_6">
      <path d="M 56.335 549.48658 
L 861.84 549.48658 
" clip-path="url(#p232f9c8542)" style="fill: none; stroke: #ffffff; stroke-linecap: round"/>
     </g>
     <g id="text_1">
      <!-- 280 -->
      <g style="fill: #262626" transform="translate(28.483906 553.423376) scale(0.11 -0.11)">
       <defs>
        <path id="ArialMT-32" d="M 3222 541 
L 3222 0 
L 194 0 
Q 188 203 259 391 
Q 375 700 629 1000 
Q 884 1300 1366 1694 
Q 2113 2306 2375 2664 
Q 2638 3022 2638 3341 
Q 2638 3675 2398 3904 
Q 2159 4134 1775 4134 
Q 1369 4134 1125 3890 
Q 881 3647 878 3216 
L 300 3275 
Q 359 3922 746 4261 
Q 1134 4600 1788 4600 
Q 2447 4600 2831 4234 
Q 3216 3869 3216 3328 
Q 3216 3053 3103 2787 
Q 2991 2522 2730 2228 
Q 2469 1934 1863 1422 
Q 1356 997 1212 845 
Q 1069 694 975 541 
L 3222 541 
z
" transform="scale(0.015625)"/>
        <path id="ArialMT-38" d="M 1131 2484 
Q 781 2613 612 2850 
Q 444 3088 444 3419 
Q 444 3919 803 4259 
Q 1163 4600 1759 4600 
Q 2359 4600 2725 4251 
Q 3091 3903 3091 3403 
Q 3091 3084 2923 2848 
Q 2756 2613 2416 2484 
Q 2838 2347 3058 2040 
Q 3278 1734 3278 1309 
Q 3278 722 2862 322 
Q 2447 -78 1769 -78 
Q 1091 -78 675 323 
Q 259 725 259 1325 
Q 259 1772 486 2073 
Q 713 2375 1131 2484 
z
M 1019 3438 
Q 1019 3113 1228 2906 
Q 1438 2700 1772 2700 
Q 2097 2700 2305 2904 
Q 2513 3109 2513 3406 
Q 2513 3716 2298 3927 
Q 2084 4138 1766 4138 
Q 1444 4138 1231 3931 
Q 1019 3725 1019 3438 
z
M 838 1322 
Q 838 1081 952 856 
Q 1066 631 1291 507 
Q 1516 384 1775 384 
Q 2178 384 2440 643 
Q 2703 903 2703 1303 
Q 2703 1709 2433 1975 
Q 2163 2241 1756 2241 
Q 1359 2241 1098 1978 
Q 838 1716 838 1322 
z
" transform="scale(0.015625)"/>
        <path id="ArialMT-30" d="M 266 2259 
Q 266 3072 433 3567 
Q 600 4063 929 4331 
Q 1259 4600 1759 4600 
Q 2128 4600 2406 4451 
Q 2684 4303 2865 4023 
Q 3047 3744 3150 3342 
Q 3253 2941 3253 2259 
Q 3253 1453 3087 958 
Q 2922 463 2592 192 
Q 2263 -78 1759 -78 
Q 1097 -78 719 397 
Q 266 969 266 2259 
z
M 844 2259 
Q 844 1131 1108 757 
Q 1372 384 1759 384 
Q 2147 384 2411 759 
Q 2675 1134 2675 2259 
Q 2675 3391 2411 3762 
Q 2147 4134 1753 4134 
Q 1366 4134 1134 3806 
Q 844 3388 844 2259 
z
" transform="scale(0.015625)"/>
       </defs>
       <use xlink:href="#ArialMT-32"/>
       <use xlink:href="#ArialMT-38" transform="translate(55.615234 0)"/>
       <use xlink:href="#ArialMT-30" transform="translate(111.230469 0)"/>
      </g>
     </g>
    </g>
    <g id="ytick_2">
     <g id="line2d_7">
      <path d="M 56.335 485.368886 
L 861.84 485.368886 
" clip-path="url(#p232f9c8542)" style="fill: none; stroke: #ffffff; stroke-linecap: round"/>
     </g>
     <g id="text_2">
      <!-- 300 -->
      <g style="fill: #262626" transform="translate(28.483906 489.305683) scale(0.11 -0.11)">
       <defs>
        <path id="ArialMT-33" d="M 269 1209 
L 831 1284 
Q 928 806 1161 595 
Q 1394 384 1728 384 
Q 2125 384 2398 659 
Q 2672 934 2672 1341 
Q 2672 1728 2419 1979 
Q 2166 2231 1775 2231 
Q 1616 2231 1378 2169 
L 1441 2663 
Q 1497 2656 1531 2656 
Q 1891 2656 2178 2843 
Q 2466 3031 2466 3422 
Q 2466 3731 2256 3934 
Q 2047 4138 1716 4138 
Q 1388 4138 1169 3931 
Q 950 3725 888 3313 
L 325 3413 
Q 428 3978 793 4289 
Q 1159 4600 1703 4600 
Q 2078 4600 2393 4439 
Q 2709 4278 2876 4000 
Q 3044 3722 3044 3409 
Q 3044 3113 2884 2869 
Q 2725 2625 2413 2481 
Q 2819 2388 3044 2092 
Q 3269 1797 3269 1353 
Q 3269 753 2831 336 
Q 2394 -81 1725 -81 
Q 1122 -81 723 278 
Q 325 638 269 1209 
z
" transform="scale(0.015625)"/>
       </defs>
       <use xlink:href="#ArialMT-33"/>
       <use xlink:href="#ArialMT-30" transform="translate(55.615234 0)"/>
       <use xlink:href="#ArialMT-30" transform="translate(111.230469 0)"/>
      </g>
     </g>
    </g>
    <g id="ytick_3">
     <g id="line2d_8">
      <path d="M 56.335 421.251193 
L 861.84 421.251193 
" clip-path="url(#p232f9c8542)" style="fill: none; stroke: #ffffff; stroke-linecap: round"/>
     </g>
     <g id="text_3">
      <!-- 320 -->
      <g style="fill: #262626" transform="translate(28.483906 425.18799) scale(0.11 -0.11)">
       <use xlink:href="#ArialMT-33"/>
       <use xlink:href="#ArialMT-32" transform="translate(55.615234 0)"/>
       <use xlink:href="#ArialMT-30" transform="translate(111.230469 0)"/>
      </g>
     </g>
    </g>
    <g id="ytick_4">
     <g id="line2d_9">
      <path d="M 56.335 357.1335 
L 861.84 357.1335 
" clip-path="url(#p232f9c8542)" style="fill: none; stroke: #ffffff; stroke-linecap: round"/>
     </g>
     <g id="text_4">
      <!-- 340 -->
      <g style="fill: #262626" transform="translate(28.483906 361.070297) scale(0.11 -0.11)">
       <defs>
        <path id="ArialMT-34" d="M 2069 0 
L 2069 1097 
L 81 1097 
L 81 1613 
L 2172 4581 
L 2631 4581 
L 2631 1613 
L 3250 1613 
L 3250 1097 
L 2631 1097 
L 2631 0 
L 2069 0 
z
M 2069 1613 
L 2069 3678 
L 634 1613 
L 2069 1613 
z
" transform="scale(0.015625)"/>
       </defs>
       <use xlink:href="#ArialMT-33"/>
       <use xlink:href="#ArialMT-34" transform="translate(55.615234 0)"/>
       <use xlink:href="#ArialMT-30" transform="translate(111.230469 0)"/>
      </g>
     </g>
    </g>
    <g id="ytick_5">
     <g id="line2d_10">
      <path d="M 56.335 293.015807 
L 861.84 293.015807 
" clip-path="url(#p232f9c8542)" style="fill: none; stroke: #ffffff; stroke-linecap: round"/>
     </g>
     <g id="text_5">
      <!-- 360 -->
      <g style="fill: #262626" transform="translate(28.483906 296.952603) scale(0.11 -0.11)">
       <defs>
        <path id="ArialMT-36" d="M 3184 3459 
L 2625 3416 
Q 2550 3747 2413 3897 
Q 2184 4138 1850 4138 
Q 1581 4138 1378 3988 
Q 1113 3794 959 3422 
Q 806 3050 800 2363 
Q 1003 2672 1297 2822 
Q 1591 2972 1913 2972 
Q 2475 2972 2870 2558 
Q 3266 2144 3266 1488 
Q 3266 1056 3080 686 
Q 2894 316 2569 119 
Q 2244 -78 1831 -78 
Q 1128 -78 684 439 
Q 241 956 241 2144 
Q 241 3472 731 4075 
Q 1159 4600 1884 4600 
Q 2425 4600 2770 4297 
Q 3116 3994 3184 3459 
z
M 888 1484 
Q 888 1194 1011 928 
Q 1134 663 1356 523 
Q 1578 384 1822 384 
Q 2178 384 2434 671 
Q 2691 959 2691 1453 
Q 2691 1928 2437 2201 
Q 2184 2475 1800 2475 
Q 1419 2475 1153 2201 
Q 888 1928 888 1484 
z
" transform="scale(0.015625)"/>
       </defs>
       <use xlink:href="#ArialMT-33"/>
       <use xlink:href="#ArialMT-36" transform="translate(55.615234 0)"/>
       <use xlink:href="#ArialMT-30" transform="translate(111.230469 0)"/>
      </g>
     </g>
    </g>
    <g id="ytick_6">
     <g id="line2d_11">
      <path d="M 56.335 228.898113 
L 861.84 228.898113 
" clip-path="url(#p232f9c8542)" style="fill: none; stroke: #ffffff; stroke-linecap: round"/>
     </g>
     <g id="text_6">
      <!-- 380 -->
      <g style="fill: #262626" transform="translate(28.483906 232.83491) scale(0.11 -0.11)">
       <use xlink:href="#ArialMT-33"/>
       <use xlink:href="#ArialMT-38" transform="translate(55.615234 0)"/>
       <use xlink:href="#ArialMT-30" transform="translate(111.230469 0)"/>
      </g>
     </g>
    </g>
    <g id="ytick_7">
     <g id="line2d_12">
      <path d="M 56.335 164.78042 
L 861.84 164.78042 
" clip-path="url(#p232f9c8542)" style="fill: none; stroke: #ffffff; stroke-linecap: round"/>
     </g>
     <g id="text_7">
      <!-- 400 -->
      <g style="fill: #262626" transform="translate(28.483906 168.717217) scale(0.11 -0.11)">
       <use xlink:href="#ArialMT-34"/>
       <use xlink:href="#ArialMT-30" transform="translate(55.615234 0)"/>
       <use xlink:href="#ArialMT-30" transform="translate(111.230469 0)"/>
      </g>
     </g>
    </g>
    <g id="ytick_8">
     <g id="line2d_13">
      <path d="M 56.335 100.662727 
L 861.84 100.662727 
" clip-path="url(#p232f9c8542)" style="fill: none; stroke: #ffffff; stroke-linecap: round"/>
     </g>
     <g id="text_8">
      <!-- 420 -->
      <g style="fill: #262626" transform="translate(28.483906 104.599524) scale(0.11 -0.11)">
       <use xlink:href="#ArialMT-34"/>
       <use xlink:href="#ArialMT-32" transform="translate(55.615234 0)"/>
       <use xlink:href="#ArialMT-30" transform="translate(111.230469 0)"/>
      </g>
     </g>
    </g>
    <g id="ytick_9">
     <g id="line2d_14">
      <path d="M 56.335 36.545033 
L 861.84 36.545033 
" clip-path="url(#p232f9c8542)" style="fill: none; stroke: #ffffff; stroke-linecap: round"/>
     </g>
     <g id="text_9">
      <!-- 440 -->
      <g style="fill: #262626" transform="translate(28.483906 40.48183) scale(0.11 -0.11)">
       <use xlink:href="#ArialMT-34"/>
       <use xlink:href="#ArialMT-34" transform="translate(55.615234 0)"/>
       <use xlink:href="#ArialMT-30" transform="translate(111.230469 0)"/>
      </g>
     </g>
    </g>
   </g>
   <g id="line2d_15">
    <path d="M 92.948864 474.222028 
L 98.069684 488.471702 
L 103.190504 470.833983 
L 108.311324 451.19028 
L 113.432144 490.623567 
L 118.552964 490.623199 
L 123.673784 449.929467 
L 128.794604 468.146736 
L 133.915424 495.904451 
L 139.036244 473.193192 
L 144.157065 495.768532 
L 149.277885 495.820417 
L 154.398705 479.938964 
L 159.519525 528.305177 
L 164.640345 524.0781 
L 169.761165 497.987289 
L 174.881985 508.098025 
L 180.002805 478.316801 
L 185.123625 505.74603 
L 190.244445 517.062666 
L 195.365265 452.47798 
L 200.486086 490.435576 
L 205.606906 483.853473 
L 210.727726 517.341935 
L 215.848546 497.585484 
L 220.969366 482.879651 
L 226.090186 511.198555 
L 231.211006 476.937775 
L 236.331826 498.847935 
L 241.452646 491.914842 
L 246.573466 498.8719 
L 251.694286 443.801555 
L 256.815106 485.67178 
L 261.935927 509.105181 
L 267.056747 466.909998 
L 272.177567 512.766074 
L 277.298387 480.681738 
L 282.419207 529.346221 
L 287.540027 515.174965 
L 292.660847 480.951085 
L 297.781667 468.796816 
L 302.902487 481.523178 
L 308.023307 487.964172 
L 313.144127 492.126012 
L 318.264948 518.548683 
L 323.385768 501.523049 
L 328.506588 495.70617 
L 333.627408 461.645803 
L 338.748228 477.657682 
L 343.869048 524.93361 
L 348.989868 478.096056 
L 354.110688 494.010592 
L 359.231508 500.559823 
L 364.352328 471.642141 
L 369.473148 462.232027 
L 374.593969 464.46985 
L 379.714789 504.201928 
L 384.835609 492.307981 
L 395.077249 463.47649 
L 400.198069 496.122128 
L 405.318889 489.535295 
L 410.439709 510.196363 
L 415.560529 512.21319 
L 420.681349 467.134838 
L 425.802169 454.933243 
L 430.92299 486.984879 
L 436.04381 462.848411 
L 441.16463 477.253343 
L 446.28545 499.846143 
L 451.40627 477.258738 
L 456.52709 450.853511 
L 461.64791 486.172865 
L 466.76873 450.256417 
L 471.88955 544.159091 
L 477.01037 466.924414 
L 482.13119 483.415446 
L 487.25201 492.078968 
L 492.372831 483.309665 
L 497.493651 529.972303 
L 502.614471 490.298585 
L 507.735291 477.354854 
L 512.856111 452.203181 
L 517.976931 496.999488 
L 523.097751 503.512447 
L 528.218571 496.628913 
L 533.339391 464.826171 
L 538.460211 477.991319 
L 543.581031 497.257337 
L 548.701852 473.850553 
L 553.822672 483.19035 
L 558.943492 463.631338 
L 564.064312 501.123795 
L 569.185132 492.722016 
L 574.305952 494.168261 
L 579.426772 518.211907 
L 584.547592 478.723594 
L 589.668412 479.510495 
L 594.789232 485.254134 
L 599.910052 490.633301 
L 605.030873 517.131494 
L 610.151693 484.967349 
L 615.272513 473.377168 
L 620.393333 473.848984 
L 625.514153 449.623049 
L 630.634973 427.094901 
L 635.755793 383.992703 
L 640.876613 412.561909 
L 645.997433 400.858586 
L 651.118253 398.467658 
L 656.239073 430.015197 
L 661.359894 377.709365 
L 666.480714 365.921404 
L 671.601534 302.153631 
L 676.722354 351.907211 
L 681.843174 330.981999 
L 686.963994 328.686734 
L 692.084814 344.292969 
L 697.205634 282.578813 
L 702.326454 281.509525 
L 707.447274 270.790779 
L 712.568094 299.108898 
L 717.688914 237.379461 
L 722.809735 290.477728 
L 727.930555 236.007425 
L 733.051375 190.179441 
L 738.172195 251.723373 
L 743.293015 232.361633 
L 748.413835 207.575621 
L 753.534655 211.26919 
L 758.655475 224.928012 
L 763.776295 178.74932 
L 768.897115 194.285997 
L 774.017935 149.977335 
L 779.138756 171.39697 
L 784.259576 106.140297 
L 789.380396 148.658491 
L 794.501216 128.467477 
L 799.622036 93.142416 
L 804.742856 129.179455 
L 809.863676 86.6116 
L 814.984496 52.540909 
L 820.105316 108.107272 
L 825.226136 58.048707 
L 825.226136 58.048707 
" clip-path="url(#p232f9c8542)" style="fill: none; stroke: #14b8a6; stroke-width: 1.5; stroke-linecap: round"/>
   </g>
   <g id="patch_3">
    <path d="M 56.335 568.74 
L 56.335 27.96 
" style="fill: none; stroke: #ffffff; stroke-width: 1.25; stroke-linejoin: miter; stroke-linecap: square"/>
   </g>
   <g id="patch_4">
    <path d="M 861.84 568.74 
L 861.84 27.96 
" style="fill: none; stroke: #ffffff; stroke-width: 1.25; stroke-linejoin: miter; stroke-linecap: square"/>
   </g>
   <g id="patch_5">
    <path d="M 56.335 568.74 
L 861.84 568.74 
" style="fill: none; stroke: #ffffff; stroke-width: 1.25; stroke-linejoin: miter; stroke-linecap: square"/>
   </g>
   <g id="patch_6">
    <path d="M 56.335 27.96 
L 861.84 27.96 
" style="fill: none; stroke: #ffffff; stroke-width: 1.25; stroke-linejoin: miter; stroke-linecap: square"/>
   </g>
  </g>
 </g>
 <defs>
  <clipPath id="p232f9c8542">
   <rect x="56.335" y="27.96" width="805.505" height="540.78"/>
  </clipPath>
 </defs>
</svg>
