<?xml version="1.0" encoding="utf-8" standalone="no"?>
<!DOCTYPE svg PUBLIC "-//W3C//DTD SVG 1.1//EN"
  "http://www.w3.org/Graphics/SVG/1.1/DTD/svg11.dtd">
<svg xmlns:xlink="http://www.w3.org/1999/xlink" width="874.8pt" height="601.2pt" viewBox="0 0 874.8 601.2" xmlns="http://www.w3.org/2000/svg" version="1.1">
 <metadata>
  <rdf:RDF xmlns:dc="http://purl.org/dc/elements/1.1/" xmlns:cc="http://creativecommons.org/ns#" xmlns:rdf="http://www.w3.org/1999/02/22-rdf-syntax-ns#">
   <cc:Work>
    <dc:type rdf:resource="http://purl.org/dc/dcmitype/StillImage"/>
    <dc:date>2025-09-04T21:25:35.749132</dc:date>
    <dc:format>image/svg+xml</dc:format>
    <dc:creator>
     <cc:Agent>
      <dc:title>Matplotlib v3.10.0, https://matplotlib.org/</dc:title>
     </cc:Agent>
    </dc:creator>
   </cc:Work>
  </rdf:RDF>
 </metadata>
 <defs>
  <style type="text/css">*{stroke-linejoin: round; stroke-linecap: butt}</style>
 </defs>
 <g id="figure_1">
  <g id="patch_1">
   <path d="M 0 601.2 
L 874.8 601.2 
L 874.8 0 
L 0 0 
z
" style="fill: #ffffff"/>
  </g>
  <g id="axes_1">
   <g id="patch_2">
    <path d="M 56.335 568.74 
L 861.84 568.74 
L 861.84 27.96 
L 56.335 27.96 
z
" style="fill: #eaeaf2"/>
   </g>
   <g id="matplotlib.axis_1">
    <g id="xtick_1">
     <g id="line2d_1">
      <path d="M 92.948864 568.74 
L 92.948864 27.96 
" clip-path="url(#p4573bdffe3)" style="fill: none; stroke: #ffffff; stroke-linecap: round"/>
     </g>
    </g>
    <g id="xtick_2">
     <g id="line2d_2">
      <path d="M 251.694286 568.74 
L 251.694286 27.96 
" clip-path="url(#p4573bdffe3)" style="fill: none; stroke: #ffffff; stroke-linecap: round"/>
     </g>
    </g>
    <g id="xtick_3">
     <g id="line2d_3">
      <path d="M 395.077249 568.74 
L 395.077249 27.96 
" clip-path="url(#p4573bdffe3)" style="fill: none; stroke: #ffffff; stroke-linecap: round"/>
     </g>
    </g>
    <g id="xtick_4">
     <g id="line2d_4">
      <path d="M 553.822672 568.74 
L 553.822672 27.96 
" clip-path="url(#p4573bdffe3)" style="fill: none; stroke: #ffffff; stroke-linecap: round"/>
     </g>
    </g>
    <g id="xtick_5">
     <g id="line2d_5">
      <path d="M 707.447274 568.74 
L 707.447274 27.96 
" clip-path="url(#p4573bdffe3)" style="fill: none; stroke: #ffffff; stroke-linecap: round"/>
     </g>
    </g>
   </g>
   <g id="matplotlib.axis_2">
    <g id="ytick_1">
     <g id="line2d_6">
      <path d="M 56.335 525.640086 
L 861.84 525.640086 
" clip-path="url(#p4573bdffe3)" style="fill: none; stroke: #ffffff; stroke-linecap: round"/>
     </g>
     <g id="text_1">
      <!-- 500 -->
      <g style="fill: #262626" transform="translate(28.483906 529.576883) scale(0.11 -0.11)">
       <defs>
        <path id="ArialMT-35" d="M 266 1200 
L 856 1250 
Q 922 819 1161 601 
Q 1400 384 1738 384 
Q 2144 384 2425 690 
Q 2706 997 2706 1503 
Q 2706 1984 2436 2262 
Q 2166 2541 1728 2541 
Q 1456 2541 1237 2417 
Q 1019 2294 894 2097 
L 366 2166 
L 809 4519 
L 3088 4519 
L 3088 3981 
L 1259 3981 
L 1013 2750 
Q 1425 3038 1878 3038 
Q 2478 3038 2890 2622 
Q 3303 2206 3303 1553 
Q 3303 931 2941 478 
Q 2500 -78 1738 -78 
Q 1113 -78 717 272 
Q 322 622 266 1200 
z
" transform="scale(0.015625)"/>
        <path id="ArialMT-30" d="M 266 2259 
Q 266 3072 433 3567 
Q 600 4063 929 4331 
Q 1259 4600 1759 4600 
Q 2128 4600 2406 4451 
Q 2684 4303 2865 4023 
Q 3047 3744 3150 3342 
Q 3253 2941 3253 2259 
Q 3253 1453 3087 958 
Q 2922 463 2592 192 
Q 2263 -78 1759 -78 
Q 1097 -78 719 397 
Q 266 969 266 2259 
z
M 844 2259 
Q 844 1131 1108 757 
Q 1372 384 1759 384 
Q 2147 384 2411 759 
Q 2675 1134 2675 2259 
Q 2675 3391 2411 3762 
Q 2147 4134 1753 4134 
Q 1366 4134 1134 3806 
Q 844 3388 844 2259 
z
" transform="scale(0.015625)"/>
       </defs>
       <use xlink:href="#ArialMT-35"/>
       <use xlink:href="#ArialMT-30" transform="translate(55.615234 0)"/>
       <use xlink:href="#ArialMT-30" transform="translate(111.230469 0)"/>
      </g>
     </g>
    </g>
    <g id="ytick_2">
     <g id="line2d_7">
      <path d="M 56.335 440.438816 
L 861.84 440.438816 
" clip-path="url(#p4573bdffe3)" style="fill: none; stroke: #ffffff; stroke-linecap: round"/>
     </g>
     <g id="text_2">
      <!-- 520 -->
      <g style="fill: #262626" transform="translate(28.483906 444.375613) scale(0.11 -0.11)">
       <defs>
        <path id="ArialMT-32" d="M 3222 541 
L 3222 0 
L 194 0 
Q 188 203 259 391 
Q 375 700 629 1000 
Q 884 1300 1366 1694 
Q 2113 2306 2375 2664 
Q 2638 3022 2638 3341 
Q 2638 3675 2398 3904 
Q 2159 4134 1775 4134 
Q 1369 4134 1125 3890 
Q 881 3647 878 3216 
L 300 3275 
Q 359 3922 746 4261 
Q 1134 4600 1788 4600 
Q 2447 4600 2831 4234 
Q 3216 3869 3216 3328 
Q 3216 3053 3103 2787 
Q 2991 2522 2730 2228 
Q 2469 1934 1863 1422 
Q 1356 997 1212 845 
Q 1069 694 975 541 
L 3222 541 
z
" transform="scale(0.015625)"/>
       </defs>
       <use xlink:href="#ArialMT-35"/>
       <use xlink:href="#ArialMT-32" transform="translate(55.615234 0)"/>
       <use xlink:href="#ArialMT-30" transform="translate(111.230469 0)"/>
      </g>
     </g>
    </g>
    <g id="ytick_3">
     <g id="line2d_8">
      <path d="M 56.335 355.237546 
L 861.84 355.237546 
" clip-path="url(#p4573bdffe3)" style="fill: none; stroke: #ffffff; stroke-linecap: round"/>
     </g>
     <g id="text_3">
      <!-- 540 -->
      <g style="fill: #262626" transform="translate(28.483906 359.174343) scale(0.11 -0.11)">
       <defs>
        <path id="ArialMT-34" d="M 2069 0 
L 2069 1097 
L 81 1097 
L 81 1613 
L 2172 4581 
L 2631 4581 
L 2631 1613 
L 3250 1613 
L 3250 1097 
L 2631 1097 
L 2631 0 
L 2069 0 
z
M 2069 1613 
L 2069 3678 
L 634 1613 
L 2069 1613 
z
" transform="scale(0.015625)"/>
       </defs>
       <use xlink:href="#ArialMT-35"/>
       <use xlink:href="#ArialMT-34" transform="translate(55.615234 0)"/>
       <use xlink:href="#ArialMT-30" transform="translate(111.230469 0)"/>
      </g>
     </g>
    </g>
    <g id="ytick_4">
     <g id="line2d_9">
      <path d="M 56.335 270.036277 
L 861.84 270.036277 
" clip-path="url(#p4573bdffe3)" style="fill: none; stroke: #ffffff; stroke-linecap: round"/>
     </g>
     <g id="text_4">
      <!-- 560 -->
      <g style="fill: #262626" transform="translate(28.483906 273.973073) scale(0.11 -0.11)">
       <defs>
        <path id="ArialMT-36" d="M 3184 3459 
L 2625 3416 
Q 2550 3747 2413 3897 
Q 2184 4138 1850 4138 
Q 1581 4138 1378 3988 
Q 1113 3794 959 3422 
Q 806 3050 800 2363 
Q 1003 2672 1297 2822 
Q 1591 2972 1913 2972 
Q 2475 2972 2870 2558 
Q 3266 2144 3266 1488 
Q 3266 1056 3080 686 
Q 2894 316 2569 119 
Q 2244 -78 1831 -78 
Q 1128 -78 684 439 
Q 241 956 241 2144 
Q 241 3472 731 4075 
Q 1159 4600 1884 4600 
Q 2425 4600 2770 4297 
Q 3116 3994 3184 3459 
z
M 888 1484 
Q 888 1194 1011 928 
Q 1134 663 1356 523 
Q 1578 384 1822 384 
Q 2178 384 2434 671 
Q 2691 959 2691 1453 
Q 2691 1928 2437 2201 
Q 2184 2475 1800 2475 
Q 1419 2475 1153 2201 
Q 888 1928 888 1484 
z
" transform="scale(0.015625)"/>
       </defs>
       <use xlink:href="#ArialMT-35"/>
       <use xlink:href="#ArialMT-36" transform="translate(55.615234 0)"/>
       <use xlink:href="#ArialMT-30" transform="translate(111.230469 0)"/>
      </g>
     </g>
    </g>
    <g id="ytick_5">
     <g id="line2d_10">
      <path d="M 56.335 184.835007 
L 861.84 184.835007 
" clip-path="url(#p4573bdffe3)" style="fill: none; stroke: #ffffff; stroke-linecap: round"/>
     </g>
     <g id="text_5">
      <!-- 580 -->
      <g style="fill: #262626" transform="translate(28.483906 188.771804) scale(0.11 -0.11)">
       <defs>
        <path id="ArialMT-38" d="M 1131 2484 
Q 781 2613 612 2850 
Q 444 3088 444 3419 
Q 444 3919 803 4259 
Q 1163 4600 1759 4600 
Q 2359 4600 2725 4251 
Q 3091 3903 3091 3403 
Q 3091 3084 2923 2848 
Q 2756 2613 2416 2484 
Q 2838 2347 3058 2040 
Q 3278 1734 3278 1309 
Q 3278 722 2862 322 
Q 2447 -78 1769 -78 
Q 1091 -78 675 323 
Q 259 725 259 1325 
Q 259 1772 486 2073 
Q 713 2375 1131 2484 
z
M 1019 3438 
Q 1019 3113 1228 2906 
Q 1438 2700 1772 2700 
Q 2097 2700 2305 2904 
Q 2513 3109 2513 3406 
Q 2513 3716 2298 3927 
Q 2084 4138 1766 4138 
Q 1444 4138 1231 3931 
Q 1019 3725 1019 3438 
z
M 838 1322 
Q 838 1081 952 856 
Q 1066 631 1291 507 
Q 1516 384 1775 384 
Q 2178 384 2440 643 
Q 2703 903 2703 1303 
Q 2703 1709 2433 1975 
Q 2163 2241 1756 2241 
Q 1359 2241 1098 1978 
Q 838 1716 838 1322 
z
" transform="scale(0.015625)"/>
       </defs>
       <use xlink:href="#ArialMT-35"/>
       <use xlink:href="#ArialMT-38" transform="translate(55.615234 0)"/>
       <use xlink:href="#ArialMT-30" transform="translate(111.230469 0)"/>
      </g>
     </g>
    </g>
    <g id="ytick_6">
     <g id="line2d_11">
      <path d="M 56.335 99.633737 
L 861.84 99.633737 
" clip-path="url(#p4573bdffe3)" style="fill: none; stroke: #ffffff; stroke-linecap: round"/>
     </g>
     <g id="text_6">
      <!-- 600 -->
      <g style="fill: #262626" transform="translate(28.483906 103.570534) scale(0.11 -0.11)">
       <use xlink:href="#ArialMT-36"/>
       <use xlink:href="#ArialMT-30" transform="translate(55.615234 0)"/>
       <use xlink:href="#ArialMT-30" transform="translate(111.230469 0)"/>
      </g>
     </g>
    </g>
   </g>
   <g id="line2d_12">
    <path d="M 92.948864 84.8215 
L 98.069684 103.75684 
L 103.190504 80.319377 
L 108.311324 54.21631 
L 113.432144 106.616295 
L 118.552964 106.615805 
L 123.673784 52.540909 
L 128.794604 76.748492 
L 133.915424 113.633672 
L 139.036244 83.454355 
L 144.157065 113.453059 
L 149.277885 116.526471 
L 154.398705 98.427246 
L 159.519525 165.702002 
L 164.640345 163.089417 
L 169.761165 131.42373 
L 174.881985 147.863606 
L 180.002805 111.294003 
L 185.123625 150.747145 
L 190.244445 168.789454 
L 195.365265 85.972098 
L 200.486086 139.415611 
L 205.606906 133.673606 
L 210.727726 181.178417 
L 215.848546 157.929993 
L 220.969366 141.392964 
L 226.090186 182.02833 
L 231.211006 139.506174 
L 236.331826 171.625435 
L 241.452646 165.417025 
L 246.573466 177.666212 
L 251.694286 107.491761 
L 256.815106 166.134479 
L 261.935927 200.277861 
L 267.056747 147.212262 
L 272.177567 211.151483 
L 277.298387 171.521443 
L 282.419207 239.192548 
L 287.540027 223.365879 
L 292.660847 180.892757 
L 297.781667 167.74631 
L 302.902487 187.661899 
L 308.023307 199.225327 
L 313.144127 207.760155 
L 318.264948 245.875758 
L 323.385768 226.256115 
L 328.506588 221.53096 
L 333.627408 179.275118 
L 338.748228 203.556588 
L 343.869048 269.382545 
L 348.989868 210.148042 
L 354.110688 234.300161 
L 359.231508 246.007417 
L 364.352328 210.585309 
L 369.473148 201.08537 
L 374.593969 207.063512 
L 379.714789 262.865005 
L 384.835609 250.064481 
L 395.077249 217.761373 
L 400.198069 264.146217 
L 405.318889 258.397928 
L 410.439709 288.857361 
L 415.560529 294.541839 
L 420.681349 237.645011 
L 425.802169 224.435677 
L 430.92299 270.031197 
L 436.04381 240.962492 
L 441.16463 263.108608 
L 446.28545 296.134979 
L 451.40627 269.124709 
L 456.52709 237.041219 
L 461.64791 286.978967 
L 466.76873 242.256715 
L 471.88955 370.041513 
L 477.01037 270.414518 
L 482.13119 295.3327 
L 487.25201 309.84948 
L 492.372831 301.201066 
L 497.493651 366.212068 
L 502.614471 316.497058 
L 507.735291 302.301555 
L 512.856111 271.88382 
L 517.976931 334.414791 
L 523.097751 346.073847 
L 528.218571 339.931292 
L 533.339391 300.675442 
L 538.460211 321.174102 
L 543.581031 349.779756 
L 548.701852 321.680675 
L 553.822672 337.096108 
L 558.943492 314.110045 
L 564.064312 366.93547 
L 569.185132 358.775432 
L 574.305952 363.701706 
L 579.426772 398.655999 
L 584.547592 349.18736 
L 589.668412 353.23748 
L 594.789232 363.874244 
L 599.910052 374.026688 
L 605.030873 412.242646 
L 610.151693 385.583958 
L 615.272513 386.264493 
L 620.393333 402.973324 
L 625.514153 386.863137 
L 630.634973 373.009015 
L 635.755793 331.815555 
L 640.876613 385.860934 
L 645.997433 386.391121 
L 651.118253 399.295864 
L 656.239073 457.29893 
L 661.359894 403.875441 
L 666.480714 404.29316 
L 671.601534 335.638743 
L 676.722354 417.834473 
L 681.843174 406.110373 
L 686.963994 419.142235 
L 692.084814 455.962079 
L 697.205634 390.036562 
L 702.326454 404.697535 
L 707.447274 406.536054 
L 712.568094 460.247782 
L 717.688914 394.30196 
L 722.809735 480.942197 
L 727.930555 424.642502 
L 733.051375 379.826947 
L 738.172195 477.690007 
L 743.293015 468.043489 
L 748.413835 451.189057 
L 753.534655 472.179038 
L 758.655475 506.411109 
L 763.776295 461.129524 
L 768.897115 497.856937 
L 774.017935 455.060297 
L 779.138756 499.605139 
L 784.259576 428.972233 
L 789.380396 501.553393 
L 794.501216 490.804915 
L 799.622036 459.945918 
L 804.742856 523.91475 
L 809.863676 483.431338 
L 814.984496 454.239183 
L 820.105316 544.159091 
L 825.226136 493.721829 
L 825.226136 493.721829 
" clip-path="url(#p4573bdffe3)" style="fill: none; stroke: #f59e0b; stroke-width: 1.5; stroke-linecap: round"/>
   </g>
   <g id="patch_3">
    <path d="M 56.335 568.74 
L 56.335 27.96 
" style="fill: none; stroke: #ffffff; stroke-width: 1.25; stroke-linejoin: miter; stroke-linecap: square"/>
   </g>
   <g id="patch_4">
    <path d="M 861.84 568.74 
L 861.84 27.96 
" style="fill: none; stroke: #ffffff; stroke-width: 1.25; stroke-linejoin: miter; stroke-linecap: square"/>
   </g>
   <g id="patch_5">
    <path d="M 56.335 568.74 
L 861.84 568.74 
" style="fill: none; stroke: #ffffff; stroke-width: 1.25; stroke-linejoin: miter; stroke-linecap: square"/>
   </g>
   <g id="patch_6">
    <path d="M 56.335 27.96 
L 861.84 27.96 
" style="fill: none; stroke: #ffffff; stroke-width: 1.25; stroke-linejoin: miter; stroke-linecap: square"/>
   </g>
  </g>
 </g>
 <defs>
  <clipPath id="p4573bdffe3">
   <rect x="56.335" y="27.96" width="805.505" height="540.78"/>
  </clipPath>
 </defs>
</svg>
