<?xml version="1.0" encoding="utf-8" standalone="no"?>
<!DOCTYPE svg PUBLIC "-//W3C//DTD SVG 1.1//EN"
  "http://www.w3.org/Graphics/SVG/1.1/DTD/svg11.dtd">
<svg xmlns:xlink="http://www.w3.org/1999/xlink" width="874.8pt" height="601.2pt" viewBox="0 0 874.8 601.2" xmlns="http://www.w3.org/2000/svg" version="1.1">
 <metadata>
  <rdf:RDF xmlns:dc="http://purl.org/dc/elements/1.1/" xmlns:cc="http://creativecommons.org/ns#" xmlns:rdf="http://www.w3.org/1999/02/22-rdf-syntax-ns#">
   <cc:Work>
    <dc:type rdf:resource="http://purl.org/dc/dcmitype/StillImage"/>
    <dc:date>2025-09-04T21:19:17.424869</dc:date>
    <dc:format>image/svg+xml</dc:format>
    <dc:creator>
     <cc:Agent>
      <dc:title>Matplotlib v3.10.0, https://matplotlib.org/</dc:title>
     </cc:Agent>
    </dc:creator>
   </cc:Work>
  </rdf:RDF>
 </metadata>
 <defs>
  <style type="text/css">*{stroke-linejoin: round; stroke-linecap: butt}</style>
 </defs>
 <g id="figure_1">
  <g id="patch_1">
   <path d="M 0 601.2 
L 874.8 601.2 
L 874.8 0 
L 0 0 
z
" style="fill: #ffffff"/>
  </g>
  <g id="axes_1">
   <g id="patch_2">
    <path d="M 56.335 568.74 
L 861.84 568.74 
L 861.84 27.96 
L 56.335 27.96 
z
" style="fill: #eaeaf2"/>
   </g>
   <g id="matplotlib.axis_1">
    <g id="xtick_1">
     <g id="line2d_1">
      <path d="M 92.948864 568.74 
L 92.948864 27.96 
" clip-path="url(#p3d752202c3)" style="fill: none; stroke: #ffffff; stroke-linecap: round"/>
     </g>
    </g>
    <g id="xtick_2">
     <g id="line2d_2">
      <path d="M 251.694286 568.74 
L 251.694286 27.96 
" clip-path="url(#p3d752202c3)" style="fill: none; stroke: #ffffff; stroke-linecap: round"/>
     </g>
    </g>
    <g id="xtick_3">
     <g id="line2d_3">
      <path d="M 395.077249 568.74 
L 395.077249 27.96 
" clip-path="url(#p3d752202c3)" style="fill: none; stroke: #ffffff; stroke-linecap: round"/>
     </g>
    </g>
    <g id="xtick_4">
     <g id="line2d_4">
      <path d="M 553.822672 568.74 
L 553.822672 27.96 
" clip-path="url(#p3d752202c3)" style="fill: none; stroke: #ffffff; stroke-linecap: round"/>
     </g>
    </g>
    <g id="xtick_5">
     <g id="line2d_5">
      <path d="M 707.447274 568.74 
L 707.447274 27.96 
" clip-path="url(#p3d752202c3)" style="fill: none; stroke: #ffffff; stroke-linecap: round"/>
     </g>
    </g>
   </g>
   <g id="matplotlib.axis_2">
    <g id="ytick_1">
     <g id="line2d_6">
      <path d="M 56.335 507.023073 
L 861.84 507.023073 
" clip-path="url(#p3d752202c3)" style="fill: none; stroke: #ffffff; stroke-linecap: round"/>
     </g>
     <g id="text_1">
      <!-- 290 -->
      <g style="fill: #262626" transform="translate(28.483906 510.95987) scale(0.11 -0.11)">
       <defs>
        <path id="ArialMT-32" d="M 3222 541 
L 3222 0 
L 194 0 
Q 188 203 259 391 
Q 375 700 629 1000 
Q 884 1300 1366 1694 
Q 2113 2306 2375 2664 
Q 2638 3022 2638 3341 
Q 2638 3675 2398 3904 
Q 2159 4134 1775 4134 
Q 1369 4134 1125 3890 
Q 881 3647 878 3216 
L 300 3275 
Q 359 3922 746 4261 
Q 1134 4600 1788 4600 
Q 2447 4600 2831 4234 
Q 3216 3869 3216 3328 
Q 3216 3053 3103 2787 
Q 2991 2522 2730 2228 
Q 2469 1934 1863 1422 
Q 1356 997 1212 845 
Q 1069 694 975 541 
L 3222 541 
z
" transform="scale(0.015625)"/>
        <path id="ArialMT-39" d="M 350 1059 
L 891 1109 
Q 959 728 1153 556 
Q 1347 384 1650 384 
Q 1909 384 2104 503 
Q 2300 622 2425 820 
Q 2550 1019 2634 1356 
Q 2719 1694 2719 2044 
Q 2719 2081 2716 2156 
Q 2547 1888 2255 1720 
Q 1963 1553 1622 1553 
Q 1053 1553 659 1965 
Q 266 2378 266 3053 
Q 266 3750 677 4175 
Q 1088 4600 1706 4600 
Q 2153 4600 2523 4359 
Q 2894 4119 3086 3673 
Q 3278 3228 3278 2384 
Q 3278 1506 3087 986 
Q 2897 466 2520 194 
Q 2144 -78 1638 -78 
Q 1100 -78 759 220 
Q 419 519 350 1059 
z
M 2653 3081 
Q 2653 3566 2395 3850 
Q 2138 4134 1775 4134 
Q 1400 4134 1122 3828 
Q 844 3522 844 3034 
Q 844 2597 1108 2323 
Q 1372 2050 1759 2050 
Q 2150 2050 2401 2323 
Q 2653 2597 2653 3081 
z
" transform="scale(0.015625)"/>
        <path id="ArialMT-30" d="M 266 2259 
Q 266 3072 433 3567 
Q 600 4063 929 4331 
Q 1259 4600 1759 4600 
Q 2128 4600 2406 4451 
Q 2684 4303 2865 4023 
Q 3047 3744 3150 3342 
Q 3253 2941 3253 2259 
Q 3253 1453 3087 958 
Q 2922 463 2592 192 
Q 2263 -78 1759 -78 
Q 1097 -78 719 397 
Q 266 969 266 2259 
z
M 844 2259 
Q 844 1131 1108 757 
Q 1372 384 1759 384 
Q 2147 384 2411 759 
Q 2675 1134 2675 2259 
Q 2675 3391 2411 3762 
Q 2147 4134 1753 4134 
Q 1366 4134 1134 3806 
Q 844 3388 844 2259 
z
" transform="scale(0.015625)"/>
       </defs>
       <use xlink:href="#ArialMT-32"/>
       <use xlink:href="#ArialMT-39" transform="translate(55.615234 0)"/>
       <use xlink:href="#ArialMT-30" transform="translate(111.230469 0)"/>
      </g>
     </g>
    </g>
    <g id="ytick_2">
     <g id="line2d_7">
      <path d="M 56.335 387.180198 
L 861.84 387.180198 
" clip-path="url(#p3d752202c3)" style="fill: none; stroke: #ffffff; stroke-linecap: round"/>
     </g>
     <g id="text_2">
      <!-- 300 -->
      <g style="fill: #262626" transform="translate(28.483906 391.116995) scale(0.11 -0.11)">
       <defs>
        <path id="ArialMT-33" d="M 269 1209 
L 831 1284 
Q 928 806 1161 595 
Q 1394 384 1728 384 
Q 2125 384 2398 659 
Q 2672 934 2672 1341 
Q 2672 1728 2419 1979 
Q 2166 2231 1775 2231 
Q 1616 2231 1378 2169 
L 1441 2663 
Q 1497 2656 1531 2656 
Q 1891 2656 2178 2843 
Q 2466 3031 2466 3422 
Q 2466 3731 2256 3934 
Q 2047 4138 1716 4138 
Q 1388 4138 1169 3931 
Q 950 3725 888 3313 
L 325 3413 
Q 428 3978 793 4289 
Q 1159 4600 1703 4600 
Q 2078 4600 2393 4439 
Q 2709 4278 2876 4000 
Q 3044 3722 3044 3409 
Q 3044 3113 2884 2869 
Q 2725 2625 2413 2481 
Q 2819 2388 3044 2092 
Q 3269 1797 3269 1353 
Q 3269 753 2831 336 
Q 2394 -81 1725 -81 
Q 1122 -81 723 278 
Q 325 638 269 1209 
z
" transform="scale(0.015625)"/>
       </defs>
       <use xlink:href="#ArialMT-33"/>
       <use xlink:href="#ArialMT-30" transform="translate(55.615234 0)"/>
       <use xlink:href="#ArialMT-30" transform="translate(111.230469 0)"/>
      </g>
     </g>
    </g>
    <g id="ytick_3">
     <g id="line2d_8">
      <path d="M 56.335 267.337323 
L 861.84 267.337323 
" clip-path="url(#p3d752202c3)" style="fill: none; stroke: #ffffff; stroke-linecap: round"/>
     </g>
     <g id="text_3">
      <!-- 310 -->
      <g style="fill: #262626" transform="translate(28.483906 271.27412) scale(0.11 -0.11)">
       <defs>
        <path id="ArialMT-31" d="M 2384 0 
L 1822 0 
L 1822 3584 
Q 1619 3391 1289 3197 
Q 959 3003 697 2906 
L 697 3450 
Q 1169 3672 1522 3987 
Q 1875 4303 2022 4600 
L 2384 4600 
L 2384 0 
z
" transform="scale(0.015625)"/>
       </defs>
       <use xlink:href="#ArialMT-33"/>
       <use xlink:href="#ArialMT-31" transform="translate(55.615234 0)"/>
       <use xlink:href="#ArialMT-30" transform="translate(111.230469 0)"/>
      </g>
     </g>
    </g>
    <g id="ytick_4">
     <g id="line2d_9">
      <path d="M 56.335 147.494448 
L 861.84 147.494448 
" clip-path="url(#p3d752202c3)" style="fill: none; stroke: #ffffff; stroke-linecap: round"/>
     </g>
     <g id="text_4">
      <!-- 320 -->
      <g style="fill: #262626" transform="translate(28.483906 151.431245) scale(0.11 -0.11)">
       <use xlink:href="#ArialMT-33"/>
       <use xlink:href="#ArialMT-32" transform="translate(55.615234 0)"/>
       <use xlink:href="#ArialMT-30" transform="translate(111.230469 0)"/>
      </g>
     </g>
    </g>
   </g>
   <g id="line2d_10">
    <path d="M 92.948864 357.416372 
L 98.069684 395.465194 
L 103.190504 348.36977 
L 108.311324 295.91806 
L 113.432144 401.211005 
L 118.552964 401.210021 
L 123.673784 292.551496 
L 128.794604 341.194406 
L 133.915424 415.311778 
L 139.036244 354.66922 
L 144.157065 414.948853 
L 149.277885 415.087395 
L 154.398705 372.681471 
L 159.519525 501.826701 
L 164.640345 490.539754 
L 169.761165 420.873275 
L 174.881985 447.870495 
L 180.002805 368.350046 
L 185.123625 441.590306 
L 190.244445 471.807466 
L 195.365265 299.356417 
L 200.486086 400.709039 
L 205.606906 383.133811 
L 210.727726 472.553158 
L 215.848546 419.800394 
L 220.969366 380.533557 
L 226.090186 456.149388 
L 231.211006 364.667833 
L 236.331826 423.171332 
L 241.452646 404.658907 
L 246.573466 423.235323 
L 251.694286 276.189027 
L 256.815106 387.988971 
L 261.935927 450.559758 
L 267.056747 337.892125 
L 272.177567 460.334905 
L 277.298387 374.664791 
L 282.419207 504.606449 
L 287.540027 466.767016 
L 292.660847 375.38399 
L 297.781667 342.930219 
L 302.902487 376.911564 
L 308.023307 394.11001 
L 313.144127 405.222764 
L 318.264948 475.775361 
L 323.385768 430.314298 
L 328.506588 414.782336 
L 333.627408 323.835915 
L 338.748228 366.590096 
L 343.869048 492.824099 
L 348.989868 367.760621 
L 354.110688 410.254882 
L 359.231508 427.742338 
L 364.352328 350.527676 
L 369.473148 325.401225 
L 374.593969 331.376555 
L 379.714789 437.467319 
L 384.835609 405.708648 
L 395.077249 328.724132 
L 400.198069 415.893007 
L 405.318889 398.305151 
L 410.439709 453.47338 
L 415.560529 458.858619 
L 420.681349 338.492483 
L 425.802169 305.912346 
L 430.92299 391.495148 
L 436.04381 327.047064 
L 441.16463 365.510448 
L 446.28545 425.836701 
L 451.40627 365.524854 
L 456.52709 295.018836 
L 461.64791 389.326946 
L 466.76873 293.424501 
L 471.88955 544.159091 
L 477.01037 337.930619 
L 482.13119 381.964213 
L 487.25201 405.097148 
L 492.372831 381.681761 
L 497.493651 506.278185 
L 502.614471 400.343254 
L 507.735291 365.7815 
L 512.856111 298.622662 
L 517.976931 418.235695 
L 523.097751 435.626297 
L 528.218571 417.246202 
L 533.339391 332.327987 
L 538.460211 367.480959 
L 543.581031 418.924191 
L 548.701852 356.424476 
L 553.822672 381.363172 
L 558.943492 329.137598 
L 564.064312 429.248229 
L 569.185132 406.814185 
L 574.305952 410.675882 
L 579.426772 474.876118 
L 584.547592 369.436246 
L 589.668412 371.537391 
L 594.789232 386.873793 
L 599.910052 401.236996 
L 605.030873 471.991248 
L 610.151693 412.385871 
L 615.272513 407.716145 
L 620.393333 435.253806 
L 625.514153 396.84467 
L 630.634973 362.96889 
L 635.755793 274.157227 
L 640.876613 376.719245 
L 645.997433 371.747409 
L 651.118253 391.641104 
L 656.239073 502.155728 
L 661.359894 388.768948 
L 666.480714 383.571117 
L 671.601534 239.57919 
L 676.722354 398.706744 
L 681.843174 369.111048 
L 686.963994 389.260177 
L 692.084814 457.209066 
L 697.205634 318.700612 
L 702.326454 342.12329 
L 707.447274 339.780427 
L 712.568094 441.672002 
L 717.688914 303.122746 
L 722.809735 471.181129 
L 727.930555 352.014877 
L 733.051375 255.924948 
L 738.172195 446.534559 
L 743.293015 421.113572 
L 748.413835 381.208945 
L 753.534655 417.349183 
L 758.655475 480.09818 
L 763.776295 383.071806 
L 768.897115 450.834964 
L 774.017935 358.801859 
L 779.138756 442.27342 
L 784.259576 294.305901 
L 789.380396 393.666891 
L 794.501216 325.584647 
L 799.622036 217.092166 
L 804.742856 299.147476 
L 809.863676 171.31562 
L 814.984496 66.172503 
L 820.105316 200.374112 
L 825.226136 52.540909 
L 825.226136 52.540909 
" clip-path="url(#p3d752202c3)" style="fill: none; stroke: #14b8a6; stroke-width: 1.5; stroke-linecap: round"/>
   </g>
   <g id="patch_3">
    <path d="M 56.335 568.74 
L 56.335 27.96 
" style="fill: none; stroke: #ffffff; stroke-width: 1.25; stroke-linejoin: miter; stroke-linecap: square"/>
   </g>
   <g id="patch_4">
    <path d="M 861.84 568.74 
L 861.84 27.96 
" style="fill: none; stroke: #ffffff; stroke-width: 1.25; stroke-linejoin: miter; stroke-linecap: square"/>
   </g>
   <g id="patch_5">
    <path d="M 56.335 568.74 
L 861.84 568.74 
" style="fill: none; stroke: #ffffff; stroke-width: 1.25; stroke-linejoin: miter; stroke-linecap: square"/>
   </g>
   <g id="patch_6">
    <path d="M 56.335 27.96 
L 861.84 27.96 
" style="fill: none; stroke: #ffffff; stroke-width: 1.25; stroke-linejoin: miter; stroke-linecap: square"/>
   </g>
  </g>
 </g>
 <defs>
  <clipPath id="p3d752202c3">
   <rect x="56.335" y="27.96" width="805.505" height="540.78"/>
  </clipPath>
 </defs>
</svg>
