<?xml version="1.0" encoding="utf-8" standalone="no"?>
<!DOCTYPE svg PUBLIC "-//W3C//DTD SVG 1.1//EN"
  "http://www.w3.org/Graphics/SVG/1.1/DTD/svg11.dtd">
<svg xmlns:xlink="http://www.w3.org/1999/xlink" width="874.8pt" height="601.2pt" viewBox="0 0 874.8 601.2" xmlns="http://www.w3.org/2000/svg" version="1.1">
 <metadata>
  <rdf:RDF xmlns:dc="http://purl.org/dc/elements/1.1/" xmlns:cc="http://creativecommons.org/ns#" xmlns:rdf="http://www.w3.org/1999/02/22-rdf-syntax-ns#">
   <cc:Work>
    <dc:type rdf:resource="http://purl.org/dc/dcmitype/StillImage"/>
    <dc:date>2025-09-04T21:16:28.070747</dc:date>
    <dc:format>image/svg+xml</dc:format>
    <dc:creator>
     <cc:Agent>
      <dc:title>Matplotlib v3.10.0, https://matplotlib.org/</dc:title>
     </cc:Agent>
    </dc:creator>
   </cc:Work>
  </rdf:RDF>
 </metadata>
 <defs>
  <style type="text/css">*{stroke-linejoin: round; stroke-linecap: butt}</style>
 </defs>
 <g id="figure_1">
  <g id="patch_1">
   <path d="M 0 601.2 
L 874.8 601.2 
L 874.8 0 
L 0 0 
z
" style="fill: #ffffff"/>
  </g>
  <g id="axes_1">
   <g id="patch_2">
    <path d="M 56.335 568.74 
L 861.84 568.74 
L 861.84 27.96 
L 56.335 27.96 
z
" style="fill: #eaeaf2"/>
   </g>
   <g id="matplotlib.axis_1">
    <g id="xtick_1">
     <g id="line2d_1">
      <path d="M 92.948864 568.74 
L 92.948864 27.96 
" clip-path="url(#pdf4b606e2f)" style="fill: none; stroke: #ffffff; stroke-linecap: round"/>
     </g>
    </g>
    <g id="xtick_2">
     <g id="line2d_2">
      <path d="M 251.694286 568.74 
L 251.694286 27.96 
" clip-path="url(#pdf4b606e2f)" style="fill: none; stroke: #ffffff; stroke-linecap: round"/>
     </g>
    </g>
    <g id="xtick_3">
     <g id="line2d_3">
      <path d="M 395.077249 568.74 
L 395.077249 27.96 
" clip-path="url(#pdf4b606e2f)" style="fill: none; stroke: #ffffff; stroke-linecap: round"/>
     </g>
    </g>
    <g id="xtick_4">
     <g id="line2d_4">
      <path d="M 553.822672 568.74 
L 553.822672 27.96 
" clip-path="url(#pdf4b606e2f)" style="fill: none; stroke: #ffffff; stroke-linecap: round"/>
     </g>
    </g>
    <g id="xtick_5">
     <g id="line2d_5">
      <path d="M 707.447274 568.74 
L 707.447274 27.96 
" clip-path="url(#pdf4b606e2f)" style="fill: none; stroke: #ffffff; stroke-linecap: round"/>
     </g>
    </g>
   </g>
   <g id="matplotlib.axis_2">
    <g id="ytick_1">
     <g id="line2d_6">
      <path d="M 56.335 517.433984 
L 861.84 517.433984 
" clip-path="url(#pdf4b606e2f)" style="fill: none; stroke: #ffffff; stroke-linecap: round"/>
     </g>
     <g id="text_1">
      <!-- 290 -->
      <g style="fill: #262626" transform="translate(28.483906 521.370781) scale(0.11 -0.11)">
       <defs>
        <path id="ArialMT-32" d="M 3222 541 
L 3222 0 
L 194 0 
Q 188 203 259 391 
Q 375 700 629 1000 
Q 884 1300 1366 1694 
Q 2113 2306 2375 2664 
Q 2638 3022 2638 3341 
Q 2638 3675 2398 3904 
Q 2159 4134 1775 4134 
Q 1369 4134 1125 3890 
Q 881 3647 878 3216 
L 300 3275 
Q 359 3922 746 4261 
Q 1134 4600 1788 4600 
Q 2447 4600 2831 4234 
Q 3216 3869 3216 3328 
Q 3216 3053 3103 2787 
Q 2991 2522 2730 2228 
Q 2469 1934 1863 1422 
Q 1356 997 1212 845 
Q 1069 694 975 541 
L 3222 541 
z
" transform="scale(0.015625)"/>
        <path id="ArialMT-39" d="M 350 1059 
L 891 1109 
Q 959 728 1153 556 
Q 1347 384 1650 384 
Q 1909 384 2104 503 
Q 2300 622 2425 820 
Q 2550 1019 2634 1356 
Q 2719 1694 2719 2044 
Q 2719 2081 2716 2156 
Q 2547 1888 2255 1720 
Q 1963 1553 1622 1553 
Q 1053 1553 659 1965 
Q 266 2378 266 3053 
Q 266 3750 677 4175 
Q 1088 4600 1706 4600 
Q 2153 4600 2523 4359 
Q 2894 4119 3086 3673 
Q 3278 3228 3278 2384 
Q 3278 1506 3087 986 
Q 2897 466 2520 194 
Q 2144 -78 1638 -78 
Q 1100 -78 759 220 
Q 419 519 350 1059 
z
M 2653 3081 
Q 2653 3566 2395 3850 
Q 2138 4134 1775 4134 
Q 1400 4134 1122 3828 
Q 844 3522 844 3034 
Q 844 2597 1108 2323 
Q 1372 2050 1759 2050 
Q 2150 2050 2401 2323 
Q 2653 2597 2653 3081 
z
" transform="scale(0.015625)"/>
        <path id="ArialMT-30" d="M 266 2259 
Q 266 3072 433 3567 
Q 600 4063 929 4331 
Q 1259 4600 1759 4600 
Q 2128 4600 2406 4451 
Q 2684 4303 2865 4023 
Q 3047 3744 3150 3342 
Q 3253 2941 3253 2259 
Q 3253 1453 3087 958 
Q 2922 463 2592 192 
Q 2263 -78 1759 -78 
Q 1097 -78 719 397 
Q 266 969 266 2259 
z
M 844 2259 
Q 844 1131 1108 757 
Q 1372 384 1759 384 
Q 2147 384 2411 759 
Q 2675 1134 2675 2259 
Q 2675 3391 2411 3762 
Q 2147 4134 1753 4134 
Q 1366 4134 1134 3806 
Q 844 3388 844 2259 
z
" transform="scale(0.015625)"/>
       </defs>
       <use xlink:href="#ArialMT-32"/>
       <use xlink:href="#ArialMT-39" transform="translate(55.615234 0)"/>
       <use xlink:href="#ArialMT-30" transform="translate(111.230469 0)"/>
      </g>
     </g>
    </g>
    <g id="ytick_2">
     <g id="line2d_7">
      <path d="M 56.335 421.591839 
L 861.84 421.591839 
" clip-path="url(#pdf4b606e2f)" style="fill: none; stroke: #ffffff; stroke-linecap: round"/>
     </g>
     <g id="text_2">
      <!-- 300 -->
      <g style="fill: #262626" transform="translate(28.483906 425.528636) scale(0.11 -0.11)">
       <defs>
        <path id="ArialMT-33" d="M 269 1209 
L 831 1284 
Q 928 806 1161 595 
Q 1394 384 1728 384 
Q 2125 384 2398 659 
Q 2672 934 2672 1341 
Q 2672 1728 2419 1979 
Q 2166 2231 1775 2231 
Q 1616 2231 1378 2169 
L 1441 2663 
Q 1497 2656 1531 2656 
Q 1891 2656 2178 2843 
Q 2466 3031 2466 3422 
Q 2466 3731 2256 3934 
Q 2047 4138 1716 4138 
Q 1388 4138 1169 3931 
Q 950 3725 888 3313 
L 325 3413 
Q 428 3978 793 4289 
Q 1159 4600 1703 4600 
Q 2078 4600 2393 4439 
Q 2709 4278 2876 4000 
Q 3044 3722 3044 3409 
Q 3044 3113 2884 2869 
Q 2725 2625 2413 2481 
Q 2819 2388 3044 2092 
Q 3269 1797 3269 1353 
Q 3269 753 2831 336 
Q 2394 -81 1725 -81 
Q 1122 -81 723 278 
Q 325 638 269 1209 
z
" transform="scale(0.015625)"/>
       </defs>
       <use xlink:href="#ArialMT-33"/>
       <use xlink:href="#ArialMT-30" transform="translate(55.615234 0)"/>
       <use xlink:href="#ArialMT-30" transform="translate(111.230469 0)"/>
      </g>
     </g>
    </g>
    <g id="ytick_3">
     <g id="line2d_8">
      <path d="M 56.335 325.749694 
L 861.84 325.749694 
" clip-path="url(#pdf4b606e2f)" style="fill: none; stroke: #ffffff; stroke-linecap: round"/>
     </g>
     <g id="text_3">
      <!-- 310 -->
      <g style="fill: #262626" transform="translate(28.483906 329.686491) scale(0.11 -0.11)">
       <defs>
        <path id="ArialMT-31" d="M 2384 0 
L 1822 0 
L 1822 3584 
Q 1619 3391 1289 3197 
Q 959 3003 697 2906 
L 697 3450 
Q 1169 3672 1522 3987 
Q 1875 4303 2022 4600 
L 2384 4600 
L 2384 0 
z
" transform="scale(0.015625)"/>
       </defs>
       <use xlink:href="#ArialMT-33"/>
       <use xlink:href="#ArialMT-31" transform="translate(55.615234 0)"/>
       <use xlink:href="#ArialMT-30" transform="translate(111.230469 0)"/>
      </g>
     </g>
    </g>
    <g id="ytick_4">
     <g id="line2d_9">
      <path d="M 56.335 229.907549 
L 861.84 229.907549 
" clip-path="url(#pdf4b606e2f)" style="fill: none; stroke: #ffffff; stroke-linecap: round"/>
     </g>
     <g id="text_4">
      <!-- 320 -->
      <g style="fill: #262626" transform="translate(28.483906 233.844346) scale(0.11 -0.11)">
       <use xlink:href="#ArialMT-33"/>
       <use xlink:href="#ArialMT-32" transform="translate(55.615234 0)"/>
       <use xlink:href="#ArialMT-30" transform="translate(111.230469 0)"/>
      </g>
     </g>
    </g>
    <g id="ytick_5">
     <g id="line2d_10">
      <path d="M 56.335 134.065404 
L 861.84 134.065404 
" clip-path="url(#pdf4b606e2f)" style="fill: none; stroke: #ffffff; stroke-linecap: round"/>
     </g>
     <g id="text_5">
      <!-- 330 -->
      <g style="fill: #262626" transform="translate(28.483906 138.002201) scale(0.11 -0.11)">
       <use xlink:href="#ArialMT-33"/>
       <use xlink:href="#ArialMT-33" transform="translate(55.615234 0)"/>
       <use xlink:href="#ArialMT-30" transform="translate(111.230469 0)"/>
      </g>
     </g>
    </g>
    <g id="ytick_6">
     <g id="line2d_11">
      <path d="M 56.335 38.223259 
L 861.84 38.223259 
" clip-path="url(#pdf4b606e2f)" style="fill: none; stroke: #ffffff; stroke-linecap: round"/>
     </g>
     <g id="text_6">
      <!-- 340 -->
      <g style="fill: #262626" transform="translate(28.483906 42.160056) scale(0.11 -0.11)">
       <defs>
        <path id="ArialMT-34" d="M 2069 0 
L 2069 1097 
L 81 1097 
L 81 1613 
L 2172 4581 
L 2631 4581 
L 2631 1613 
L 3250 1613 
L 3250 1097 
L 2631 1097 
L 2631 0 
L 2069 0 
z
M 2069 1613 
L 2069 3678 
L 634 1613 
L 2069 1613 
z
" transform="scale(0.015625)"/>
       </defs>
       <use xlink:href="#ArialMT-33"/>
       <use xlink:href="#ArialMT-34" transform="translate(55.615234 0)"/>
       <use xlink:href="#ArialMT-30" transform="translate(111.230469 0)"/>
      </g>
     </g>
    </g>
   </g>
   <g id="line2d_12">
    <path d="M 92.948864 388.267534 
L 98.069684 430.867922 
L 103.190504 378.138738 
L 108.311324 319.412525 
L 113.432144 437.301072 
L 118.552964 437.299971 
L 123.673784 315.643238 
L 128.794604 370.105026 
L 133.915424 453.088641 
L 139.036244 385.191756 
L 144.157065 452.682301 
L 149.277885 450.906161 
L 154.398705 401.4962 
L 159.519525 544.159091 
L 164.640345 529.590695 
L 169.761165 449.659153 
L 174.881985 477.954642 
L 180.002805 386.990355 
L 185.123625 467.060679 
L 190.244445 498.961293 
L 195.365265 303.949641 
L 200.486086 415.495251 
L 205.606906 393.886342 
L 210.727726 492.071166 
L 215.848546 431.076631 
L 220.969366 385.181269 
L 226.090186 467.91134 
L 231.211006 363.555107 
L 236.331826 427.125795 
L 241.452646 404.467577 
L 246.573466 423.334931 
L 251.694286 256.767059 
L 256.815106 380.009745 
L 261.935927 448.134267 
L 267.056747 320.057585 
L 272.177567 455.216249 
L 277.298387 357.366648 
L 282.419207 500.921239 
L 287.540027 456.624032 
L 292.660847 352.378114 
L 297.781667 314.110827 
L 302.902487 350.225914 
L 308.023307 367.550456 
L 313.144127 378.061312 
L 318.264948 455.122464 
L 323.385768 402.291894 
L 328.506588 382.970675 
L 333.627408 279.213591 
L 338.748228 325.15096 
L 343.869048 464.554369 
L 348.989868 322.598997 
L 354.110688 368.245352 
L 359.231508 385.893478 
L 364.352328 297.510806 
L 369.473148 267.447364 
L 374.593969 272.206234 
L 379.714789 389.056783 
L 384.835609 351.567746 
L 395.077249 261.511495 
L 400.198069 357.176637 
L 405.318889 335.553589 
L 410.439709 395.390028 
L 415.560529 399.488217 
L 420.681349 262.792103 
L 425.802169 224.383333 
L 430.92299 318.272668 
L 436.04381 244.183768 
L 441.16463 285.317054 
L 446.28545 350.928542 
L 451.40627 281.470673 
L 456.52709 200.599162 
L 461.64791 304.257564 
L 466.76873 194.951595 
L 471.88955 473.748896 
L 477.01037 240.919218 
L 482.13119 288.289048 
L 487.25201 312.257991 
L 492.372831 284.110297 
L 497.493651 421.680234 
L 502.614471 301.141649 
L 507.735291 260.514212 
L 512.856111 183.390286 
L 517.976931 315.380696 
L 523.097751 332.920383 
L 528.218571 310.410325 
L 533.339391 213.402568 
L 538.460211 250.829436 
L 543.581031 306.495277 
L 548.701852 234.587818 
L 553.822672 260.578534 
L 558.943492 200.174254 
L 564.064312 310.3293 
L 569.185132 283.280343 
L 574.305952 285.672738 
L 579.426772 355.621631 
L 584.547592 235.637326 
L 589.668412 236.058564 
L 594.789232 251.298318 
L 599.910052 265.448455 
L 605.030873 342.735384 
L 610.151693 274.068496 
L 615.272513 266.908902 
L 620.393333 295.809483 
L 625.514153 250.874423 
L 630.634973 211.015019 
L 635.755793 109.648063 
L 640.876613 222.547741 
L 645.997433 215.049897 
L 651.118253 235.392108 
L 656.239073 357.195718 
L 661.359894 228.313861 
L 666.480714 220.562989 
L 671.601534 57.414863 
L 676.722354 233.646694 
L 681.843174 198.579377 
L 686.963994 219.207578 
L 692.084814 293.353554 
L 697.205634 136.344859 
L 702.326454 160.638204 
L 707.447274 156.083822 
L 712.568094 268.232857 
L 717.688914 111.17848 
L 722.809735 297.409484 
L 727.930555 162.05679 
L 733.051375 52.540909 
L 738.172195 264.020818 
L 743.293015 233.627607 
L 748.413835 187.018159 
L 753.534655 225.550395 
L 758.655475 293.874445 
L 763.776295 183.310098 
L 768.897115 257.248125 
L 774.017935 152.274363 
L 779.138756 243.799901 
L 784.259576 76.200606 
L 789.380396 230.80175 
L 794.501216 197.929369 
L 799.622036 119.812702 
L 804.742856 255.037985 
L 809.863676 155.268483 
L 814.984496 80.901845 
L 820.105316 274.511395 
L 825.226136 152.347897 
L 825.226136 152.347897 
" clip-path="url(#pdf4b606e2f)" style="fill: none; stroke: #f97316; stroke-width: 1.5; stroke-linecap: round"/>
   </g>
   <g id="patch_3">
    <path d="M 56.335 568.74 
L 56.335 27.96 
" style="fill: none; stroke: #ffffff; stroke-width: 1.25; stroke-linejoin: miter; stroke-linecap: square"/>
   </g>
   <g id="patch_4">
    <path d="M 861.84 568.74 
L 861.84 27.96 
" style="fill: none; stroke: #ffffff; stroke-width: 1.25; stroke-linejoin: miter; stroke-linecap: square"/>
   </g>
   <g id="patch_5">
    <path d="M 56.335 568.74 
L 861.84 568.74 
" style="fill: none; stroke: #ffffff; stroke-width: 1.25; stroke-linejoin: miter; stroke-linecap: square"/>
   </g>
   <g id="patch_6">
    <path d="M 56.335 27.96 
L 861.84 27.96 
" style="fill: none; stroke: #ffffff; stroke-width: 1.25; stroke-linejoin: miter; stroke-linecap: square"/>
   </g>
  </g>
 </g>
 <defs>
  <clipPath id="pdf4b606e2f">
   <rect x="56.335" y="27.96" width="805.505" height="540.78"/>
  </clipPath>
 </defs>
</svg>
