<?xml version="1.0" encoding="utf-8" standalone="no"?>
<!DOCTYPE svg PUBLIC "-//W3C//DTD SVG 1.1//EN"
  "http://www.w3.org/Graphics/SVG/1.1/DTD/svg11.dtd">
<svg xmlns:xlink="http://www.w3.org/1999/xlink" width="874.8pt" height="601.2pt" viewBox="0 0 874.8 601.2" xmlns="http://www.w3.org/2000/svg" version="1.1">
 <metadata>
  <rdf:RDF xmlns:dc="http://purl.org/dc/elements/1.1/" xmlns:cc="http://creativecommons.org/ns#" xmlns:rdf="http://www.w3.org/1999/02/22-rdf-syntax-ns#">
   <cc:Work>
    <dc:type rdf:resource="http://purl.org/dc/dcmitype/StillImage"/>
    <dc:date>2025-09-04T21:17:58.139563</dc:date>
    <dc:format>image/svg+xml</dc:format>
    <dc:creator>
     <cc:Agent>
      <dc:title>Matplotlib v3.10.0, https://matplotlib.org/</dc:title>
     </cc:Agent>
    </dc:creator>
   </cc:Work>
  </rdf:RDF>
 </metadata>
 <defs>
  <style type="text/css">*{stroke-linejoin: round; stroke-linecap: butt}</style>
 </defs>
 <g id="figure_1">
  <g id="patch_1">
   <path d="M 0 601.2 
L 874.8 601.2 
L 874.8 0 
L 0 0 
z
" style="fill: #ffffff"/>
  </g>
  <g id="axes_1">
   <g id="patch_2">
    <path d="M 56.335 568.74 
L 861.84 568.74 
L 861.84 27.96 
L 56.335 27.96 
z
" style="fill: #eaeaf2"/>
   </g>
   <g id="matplotlib.axis_1">
    <g id="xtick_1">
     <g id="line2d_1">
      <path d="M 92.948864 568.74 
L 92.948864 27.96 
" clip-path="url(#pe9c0161048)" style="fill: none; stroke: #ffffff; stroke-linecap: round"/>
     </g>
    </g>
    <g id="xtick_2">
     <g id="line2d_2">
      <path d="M 251.694286 568.74 
L 251.694286 27.96 
" clip-path="url(#pe9c0161048)" style="fill: none; stroke: #ffffff; stroke-linecap: round"/>
     </g>
    </g>
    <g id="xtick_3">
     <g id="line2d_3">
      <path d="M 395.077249 568.74 
L 395.077249 27.96 
" clip-path="url(#pe9c0161048)" style="fill: none; stroke: #ffffff; stroke-linecap: round"/>
     </g>
    </g>
    <g id="xtick_4">
     <g id="line2d_4">
      <path d="M 553.822672 568.74 
L 553.822672 27.96 
" clip-path="url(#pe9c0161048)" style="fill: none; stroke: #ffffff; stroke-linecap: round"/>
     </g>
    </g>
    <g id="xtick_5">
     <g id="line2d_5">
      <path d="M 707.447274 568.74 
L 707.447274 27.96 
" clip-path="url(#pe9c0161048)" style="fill: none; stroke: #ffffff; stroke-linecap: round"/>
     </g>
    </g>
   </g>
   <g id="matplotlib.axis_2">
    <g id="ytick_1">
     <g id="line2d_6">
      <path d="M 56.335 555.027598 
L 861.84 555.027598 
" clip-path="url(#pe9c0161048)" style="fill: none; stroke: #ffffff; stroke-linecap: round"/>
     </g>
     <g id="text_1">
      <!-- 260 -->
      <g style="fill: #262626" transform="translate(28.483906 558.964395) scale(0.11 -0.11)">
       <defs>
        <path id="ArialMT-32" d="M 3222 541 
L 3222 0 
L 194 0 
Q 188 203 259 391 
Q 375 700 629 1000 
Q 884 1300 1366 1694 
Q 2113 2306 2375 2664 
Q 2638 3022 2638 3341 
Q 2638 3675 2398 3904 
Q 2159 4134 1775 4134 
Q 1369 4134 1125 3890 
Q 881 3647 878 3216 
L 300 3275 
Q 359 3922 746 4261 
Q 1134 4600 1788 4600 
Q 2447 4600 2831 4234 
Q 3216 3869 3216 3328 
Q 3216 3053 3103 2787 
Q 2991 2522 2730 2228 
Q 2469 1934 1863 1422 
Q 1356 997 1212 845 
Q 1069 694 975 541 
L 3222 541 
z
" transform="scale(0.015625)"/>
        <path id="ArialMT-36" d="M 3184 3459 
L 2625 3416 
Q 2550 3747 2413 3897 
Q 2184 4138 1850 4138 
Q 1581 4138 1378 3988 
Q 1113 3794 959 3422 
Q 806 3050 800 2363 
Q 1003 2672 1297 2822 
Q 1591 2972 1913 2972 
Q 2475 2972 2870 2558 
Q 3266 2144 3266 1488 
Q 3266 1056 3080 686 
Q 2894 316 2569 119 
Q 2244 -78 1831 -78 
Q 1128 -78 684 439 
Q 241 956 241 2144 
Q 241 3472 731 4075 
Q 1159 4600 1884 4600 
Q 2425 4600 2770 4297 
Q 3116 3994 3184 3459 
z
M 888 1484 
Q 888 1194 1011 928 
Q 1134 663 1356 523 
Q 1578 384 1822 384 
Q 2178 384 2434 671 
Q 2691 959 2691 1453 
Q 2691 1928 2437 2201 
Q 2184 2475 1800 2475 
Q 1419 2475 1153 2201 
Q 888 1928 888 1484 
z
" transform="scale(0.015625)"/>
        <path id="ArialMT-30" d="M 266 2259 
Q 266 3072 433 3567 
Q 600 4063 929 4331 
Q 1259 4600 1759 4600 
Q 2128 4600 2406 4451 
Q 2684 4303 2865 4023 
Q 3047 3744 3150 3342 
Q 3253 2941 3253 2259 
Q 3253 1453 3087 958 
Q 2922 463 2592 192 
Q 2263 -78 1759 -78 
Q 1097 -78 719 397 
Q 266 969 266 2259 
z
M 844 2259 
Q 844 1131 1108 757 
Q 1372 384 1759 384 
Q 2147 384 2411 759 
Q 2675 1134 2675 2259 
Q 2675 3391 2411 3762 
Q 2147 4134 1753 4134 
Q 1366 4134 1134 3806 
Q 844 3388 844 2259 
z
" transform="scale(0.015625)"/>
       </defs>
       <use xlink:href="#ArialMT-32"/>
       <use xlink:href="#ArialMT-36" transform="translate(55.615234 0)"/>
       <use xlink:href="#ArialMT-30" transform="translate(111.230469 0)"/>
      </g>
     </g>
    </g>
    <g id="ytick_2">
     <g id="line2d_7">
      <path d="M 56.335 453.023436 
L 861.84 453.023436 
" clip-path="url(#pe9c0161048)" style="fill: none; stroke: #ffffff; stroke-linecap: round"/>
     </g>
     <g id="text_2">
      <!-- 270 -->
      <g style="fill: #262626" transform="translate(28.483906 456.960233) scale(0.11 -0.11)">
       <defs>
        <path id="ArialMT-37" d="M 303 3981 
L 303 4522 
L 3269 4522 
L 3269 4084 
Q 2831 3619 2401 2847 
Q 1972 2075 1738 1259 
Q 1569 684 1522 0 
L 944 0 
Q 953 541 1156 1306 
Q 1359 2072 1739 2783 
Q 2119 3494 2547 3981 
L 303 3981 
z
" transform="scale(0.015625)"/>
       </defs>
       <use xlink:href="#ArialMT-32"/>
       <use xlink:href="#ArialMT-37" transform="translate(55.615234 0)"/>
       <use xlink:href="#ArialMT-30" transform="translate(111.230469 0)"/>
      </g>
     </g>
    </g>
    <g id="ytick_3">
     <g id="line2d_8">
      <path d="M 56.335 351.019275 
L 861.84 351.019275 
" clip-path="url(#pe9c0161048)" style="fill: none; stroke: #ffffff; stroke-linecap: round"/>
     </g>
     <g id="text_3">
      <!-- 280 -->
      <g style="fill: #262626" transform="translate(28.483906 354.956071) scale(0.11 -0.11)">
       <defs>
        <path id="ArialMT-38" d="M 1131 2484 
Q 781 2613 612 2850 
Q 444 3088 444 3419 
Q 444 3919 803 4259 
Q 1163 4600 1759 4600 
Q 2359 4600 2725 4251 
Q 3091 3903 3091 3403 
Q 3091 3084 2923 2848 
Q 2756 2613 2416 2484 
Q 2838 2347 3058 2040 
Q 3278 1734 3278 1309 
Q 3278 722 2862 322 
Q 2447 -78 1769 -78 
Q 1091 -78 675 323 
Q 259 725 259 1325 
Q 259 1772 486 2073 
Q 713 2375 1131 2484 
z
M 1019 3438 
Q 1019 3113 1228 2906 
Q 1438 2700 1772 2700 
Q 2097 2700 2305 2904 
Q 2513 3109 2513 3406 
Q 2513 3716 2298 3927 
Q 2084 4138 1766 4138 
Q 1444 4138 1231 3931 
Q 1019 3725 1019 3438 
z
M 838 1322 
Q 838 1081 952 856 
Q 1066 631 1291 507 
Q 1516 384 1775 384 
Q 2178 384 2440 643 
Q 2703 903 2703 1303 
Q 2703 1709 2433 1975 
Q 2163 2241 1756 2241 
Q 1359 2241 1098 1978 
Q 838 1716 838 1322 
z
" transform="scale(0.015625)"/>
       </defs>
       <use xlink:href="#ArialMT-32"/>
       <use xlink:href="#ArialMT-38" transform="translate(55.615234 0)"/>
       <use xlink:href="#ArialMT-30" transform="translate(111.230469 0)"/>
      </g>
     </g>
    </g>
    <g id="ytick_4">
     <g id="line2d_9">
      <path d="M 56.335 249.015113 
L 861.84 249.015113 
" clip-path="url(#pe9c0161048)" style="fill: none; stroke: #ffffff; stroke-linecap: round"/>
     </g>
     <g id="text_4">
      <!-- 290 -->
      <g style="fill: #262626" transform="translate(28.483906 252.95191) scale(0.11 -0.11)">
       <defs>
        <path id="ArialMT-39" d="M 350 1059 
L 891 1109 
Q 959 728 1153 556 
Q 1347 384 1650 384 
Q 1909 384 2104 503 
Q 2300 622 2425 820 
Q 2550 1019 2634 1356 
Q 2719 1694 2719 2044 
Q 2719 2081 2716 2156 
Q 2547 1888 2255 1720 
Q 1963 1553 1622 1553 
Q 1053 1553 659 1965 
Q 266 2378 266 3053 
Q 266 3750 677 4175 
Q 1088 4600 1706 4600 
Q 2153 4600 2523 4359 
Q 2894 4119 3086 3673 
Q 3278 3228 3278 2384 
Q 3278 1506 3087 986 
Q 2897 466 2520 194 
Q 2144 -78 1638 -78 
Q 1100 -78 759 220 
Q 419 519 350 1059 
z
M 2653 3081 
Q 2653 3566 2395 3850 
Q 2138 4134 1775 4134 
Q 1400 4134 1122 3828 
Q 844 3522 844 3034 
Q 844 2597 1108 2323 
Q 1372 2050 1759 2050 
Q 2150 2050 2401 2323 
Q 2653 2597 2653 3081 
z
" transform="scale(0.015625)"/>
       </defs>
       <use xlink:href="#ArialMT-32"/>
       <use xlink:href="#ArialMT-39" transform="translate(55.615234 0)"/>
       <use xlink:href="#ArialMT-30" transform="translate(111.230469 0)"/>
      </g>
     </g>
    </g>
    <g id="ytick_5">
     <g id="line2d_10">
      <path d="M 56.335 147.010951 
L 861.84 147.010951 
" clip-path="url(#pe9c0161048)" style="fill: none; stroke: #ffffff; stroke-linecap: round"/>
     </g>
     <g id="text_5">
      <!-- 300 -->
      <g style="fill: #262626" transform="translate(28.483906 150.947748) scale(0.11 -0.11)">
       <defs>
        <path id="ArialMT-33" d="M 269 1209 
L 831 1284 
Q 928 806 1161 595 
Q 1394 384 1728 384 
Q 2125 384 2398 659 
Q 2672 934 2672 1341 
Q 2672 1728 2419 1979 
Q 2166 2231 1775 2231 
Q 1616 2231 1378 2169 
L 1441 2663 
Q 1497 2656 1531 2656 
Q 1891 2656 2178 2843 
Q 2466 3031 2466 3422 
Q 2466 3731 2256 3934 
Q 2047 4138 1716 4138 
Q 1388 4138 1169 3931 
Q 950 3725 888 3313 
L 325 3413 
Q 428 3978 793 4289 
Q 1159 4600 1703 4600 
Q 2078 4600 2393 4439 
Q 2709 4278 2876 4000 
Q 3044 3722 3044 3409 
Q 3044 3113 2884 2869 
Q 2725 2625 2413 2481 
Q 2819 2388 3044 2092 
Q 3269 1797 3269 1353 
Q 3269 753 2831 336 
Q 2394 -81 1725 -81 
Q 1122 -81 723 278 
Q 325 638 269 1209 
z
" transform="scale(0.015625)"/>
       </defs>
       <use xlink:href="#ArialMT-33"/>
       <use xlink:href="#ArialMT-30" transform="translate(55.615234 0)"/>
       <use xlink:href="#ArialMT-30" transform="translate(111.230469 0)"/>
      </g>
     </g>
    </g>
    <g id="ytick_6">
     <g id="line2d_11">
      <path d="M 56.335 45.006789 
L 861.84 45.006789 
" clip-path="url(#pe9c0161048)" style="fill: none; stroke: #ffffff; stroke-linecap: round"/>
     </g>
     <g id="text_6">
      <!-- 310 -->
      <g style="fill: #262626" transform="translate(28.483906 48.943586) scale(0.11 -0.11)">
       <defs>
        <path id="ArialMT-31" d="M 2384 0 
L 1822 0 
L 1822 3584 
Q 1619 3391 1289 3197 
Q 959 3003 697 2906 
L 697 3450 
Q 1169 3672 1522 3987 
Q 1875 4303 2022 4600 
L 2384 4600 
L 2384 0 
z
" transform="scale(0.015625)"/>
       </defs>
       <use xlink:href="#ArialMT-33"/>
       <use xlink:href="#ArialMT-31" transform="translate(55.615234 0)"/>
       <use xlink:href="#ArialMT-30" transform="translate(111.230469 0)"/>
      </g>
     </g>
    </g>
   </g>
   <g id="line2d_12">
    <path d="M 92.948864 121.677495 
L 98.069684 154.062718 
L 103.190504 113.977488 
L 108.311324 69.333259 
L 113.432144 158.95326 
L 118.552964 158.952423 
L 123.673784 66.467811 
L 128.794604 107.870183 
L 133.915424 170.955122 
L 139.036244 119.33926 
L 144.157065 170.646218 
L 149.277885 170.764137 
L 154.398705 134.670372 
L 159.519525 244.592225 
L 164.640345 234.98535 
L 169.761165 175.688785 
L 174.881985 198.667446 
L 180.002805 130.983683 
L 185.123625 193.322068 
L 190.244445 219.041379 
L 195.365265 72.259814 
L 200.486086 158.526012 
L 205.606906 143.566872 
L 210.727726 219.676073 
L 215.848546 174.775603 
L 220.969366 141.353668 
L 226.090186 205.714018 
L 231.211006 127.84957 
L 236.331826 177.644774 
L 241.452646 161.887939 
L 246.573466 177.69924 
L 251.694286 52.540909 
L 256.815106 147.699337 
L 261.935927 200.956409 
L 267.056747 105.059449 
L 272.177567 209.276518 
L 277.298387 136.358473 
L 282.419207 246.958205 
L 287.540027 214.751203 
L 292.660847 136.970618 
L 297.781667 109.347619 
L 302.902487 141.360647 
L 308.023307 159.088924 
L 313.144127 171.63737 
L 318.264948 234.777988 
L 323.385768 199.173677 
L 328.506588 189.043496 
L 333.627408 114.724361 
L 338.748228 154.204382 
L 343.869048 264.738181 
L 348.989868 161.380342 
L 354.110688 200.639131 
L 359.231508 218.613399 
L 364.352328 155.98204 
L 369.473148 137.685517 
L 374.593969 145.861249 
L 379.714789 239.250148 
L 384.835609 215.308617 
L 395.077249 155.962981 
L 400.198069 233.24653 
L 405.318889 221.366476 
L 410.439709 271.412702 
L 415.560529 279.086178 
L 420.681349 179.726478 
L 425.802169 155.085757 
L 430.92299 231.019322 
L 436.04381 179.254225 
L 441.16463 215.082136 
L 446.28545 269.51861 
L 451.40627 221.274067 
L 456.52709 164.352764 
L 461.64791 247.712867 
L 466.76873 169.175417 
L 471.88955 385.677786 
L 477.01037 213.236431 
L 482.13119 253.805422 
L 487.25201 276.584836 
L 492.372831 259.744683 
L 497.493651 368.884659 
L 502.614471 281.808066 
L 507.735291 255.480694 
L 512.856111 201.408341 
L 517.976931 306.306707 
L 523.097751 324.198538 
L 528.218571 311.64417 
L 533.339391 242.455939 
L 538.460211 275.466196 
L 543.581031 322.341894 
L 548.701852 272.235149 
L 553.822672 296.551534 
L 558.943492 255.189616 
L 564.064312 343.488529 
L 569.185132 327.483647 
L 574.305952 333.860362 
L 579.426772 391.594173 
L 584.547592 304.93895 
L 589.668412 309.817173 
L 594.789232 325.960573 
L 599.910052 341.275636 
L 605.030873 404.587892 
L 610.151693 356.944661 
L 615.272513 356.059862 
L 620.393333 382.588354 
L 625.514153 352.986285 
L 630.634973 327.242779 
L 635.755793 254.740642 
L 640.876613 345.126051 
L 645.997433 343.984112 
L 651.118253 364.006449 
L 656.239073 461.160712 
L 661.359894 367.741485 
L 666.480714 366.407191 
L 671.601534 246.938418 
L 676.722354 385.469536 
L 681.843174 363.369019 
L 686.963994 383.608769 
L 692.084814 444.533243 
L 697.205634 329.731724 
L 702.326454 352.757751 
L 707.447274 353.85346 
L 712.568094 443.668223 
L 717.688914 328.831976 
L 722.809735 474.964561 
L 727.930555 376.626141 
L 733.051375 297.929114 
L 738.172195 463.256158 
L 743.293015 444.708941 
L 748.413835 413.833987 
L 753.534655 447.684555 
L 758.655475 504.183145 
L 763.776295 424.689064 
L 768.897115 485.455453 
L 774.017935 410.211388 
L 779.138756 484.347972 
L 784.259576 361.495377 
L 789.380396 483.58264 
L 794.501216 463.150734 
L 799.622036 408.323691 
L 804.742856 515.681238 
L 809.863676 444.393501 
L 814.984496 392.417266 
L 820.105316 544.159091 
L 825.226136 455.847225 
L 825.226136 455.847225 
" clip-path="url(#pe9c0161048)" style="fill: none; stroke: #ec4899; stroke-width: 1.5; stroke-linecap: round"/>
   </g>
   <g id="patch_3">
    <path d="M 56.335 568.74 
L 56.335 27.96 
" style="fill: none; stroke: #ffffff; stroke-width: 1.25; stroke-linejoin: miter; stroke-linecap: square"/>
   </g>
   <g id="patch_4">
    <path d="M 861.84 568.74 
L 861.84 27.96 
" style="fill: none; stroke: #ffffff; stroke-width: 1.25; stroke-linejoin: miter; stroke-linecap: square"/>
   </g>
   <g id="patch_5">
    <path d="M 56.335 568.74 
L 861.84 568.74 
" style="fill: none; stroke: #ffffff; stroke-width: 1.25; stroke-linejoin: miter; stroke-linecap: square"/>
   </g>
   <g id="patch_6">
    <path d="M 56.335 27.96 
L 861.84 27.96 
" style="fill: none; stroke: #ffffff; stroke-width: 1.25; stroke-linejoin: miter; stroke-linecap: square"/>
   </g>
  </g>
 </g>
 <defs>
  <clipPath id="pe9c0161048">
   <rect x="56.335" y="27.96" width="805.505" height="540.78"/>
  </clipPath>
 </defs>
</svg>
